<?xml version="1.0" encoding="UTF-8" standalone="no"?>
<svg
   height="800.3468"
   width="733.88495"
   version="1.1"
   id="svg4"
   sodipodi:docname="Octicons-bug.svg"
   inkscape:version="1.1 (c68e22c387, 2021-05-23)"
   xmlns:inkscape="http://www.inkscape.org/namespaces/inkscape"
   xmlns:sodipodi="http://sodipodi.sourceforge.net/DTD/sodipodi-0.dtd"
   xmlns="http://www.w3.org/2000/svg"
   xmlns:svg="http://www.w3.org/2000/svg">
  <defs
     id="defs8" />
  <sodipodi:namedview
     id="namedview6"
     pagecolor="#ffffff"
     bordercolor="#666666"
     borderopacity="1.0"
     inkscape:pageshadow="2"
     inkscape:pageopacity="0.0"
     inkscape:pagecheckerboard="0"
     showgrid="false"
     inkscape:zoom="0.85253906"
     inkscape:cx="367.1386"
     inkscape:cy="432.23826"
     inkscape:window-width="3828"
     inkscape:window-height="2081"
     inkscape:window-x="0"
     inkscape:window-y="46"
     inkscape:window-maximized="1"
     inkscape:current-layer="svg4" />
  <path
     d="m 243.6206,76.877783 c -52.874,56.780997 -38.281,147.468997 -38.281,147.468997 0,0 53.968,64 160,64 106.031,0 160.031,-64 160.031,-64 0,0 14.375,-89.469 -37.375,-146.311997 32.375,-18.031 51.438,-44.094 43.562,-61.812 -8.938,-19.9689999 -48.375,-21.7499999 -88.25,-3.969 -14.812,6.594 -27.438,14.969 -37.25,23.875 -12.438,-2.25 -25.625,-3.781 -40.72,-3.781 -14.061,0 -26.561,1.344 -38.344,3.25 -9.656,-8.75 -22.062,-16.875 -36.531,-23.344 -39.875,-17.7189999 -79.375,-15.9379999 -88.25,3.969 -7.748,17.343 10.284,42.686 41.408,60.655 z m 401.125,413.218997 c -8.25,-1.75 -16.125,-2.75 -23.75,-3.5 0,-2.125 0.375,-4.125 0.375,-6.312 0,-33.594 -4.75,-65.654 -12.438,-96.125 16.438,1.406 37.375,-2.375 58.562,-11.779 39.875,-17.781 65,-48.375 56.125,-68.219 -8.875,-19.969 -48.375,-21.75 -88.25,-3.969 -18.625,8.312 -33.812,19.469 -44,30.906 -7.75,-18.25 -16.5,-35.781 -26.812,-51.719 -30.188,25.156 -87.312,62.719 -167.062,71.062 v 321.781 c 0,0 -0.25,32 -32.031,32 -31.75,0 -32,-32 -32,-32 v -321.657 c -79.811,-8.344 -136.968,-45.969 -167.093,-71.062 -9.875,15.312 -18.375,32 -25.938,49.344 -10.281,-10.625 -24.625,-20.844 -41.969,-28.594 -39.875,-17.719 -79.375,-15.938 -88.25,3.969 -8.9060001,19.906 16.25,50.438 56.125,68.219 19.844,8.846 39.531,12.812 55.469,12.096 -7.656,30.404 -12.469,62.344 -12.469,95.812 0,2.188 0.375,4.25 0.438,6.5 -6.719,0.75 -13.688,1.75 -20.781,3.25 -51.969,10.75 -91.7810001,37.625 -88.84400014,59.812 2.93800004,22.312 47.50000014,31.5 99.59400014,20.688 6.781,-1.375 13.438,-3.125 19.781,-5.062 9.156,40.809 23.812,78.684 44.094,111.309 -12.031,6.062 -24.531,15 -36.031,26.625 -31.876,31.875 -44.812,70.625 -28.876,86.563 15.938,15.937 54.656,3 86.531,-28.812 9.344,-9.375 16.844,-19.25 22.656,-29 43.532,42.624 98.063,68.124 157.563,68.124 60.343,0 115.781,-26.25 159.531,-69.938 5.875,10.312 13.75,20.812 23.625,30.688 31.812,31.875 70.625,44.812 86.562,28.875 15.937,-15.937 3,-54.625 -28.875,-86.5 -12.312,-12.375 -25.688,-21.75 -38.438,-27.938 20.125,-32.5 34.625,-70.375 43.688,-111.062 7.188,2.25 14.688,4.375 22.562,6.062 52.061,10.812 96.625,1.562 99.625,-20.688 2.813,-22.124 -36.999,-48.999 -88.999,-59.749 z"
     id="path2" />
</svg>
