<?xml version="1.0" encoding="UTF-8" standalone="no"?>
<!DOCTYPE svg PUBLIC "-//W3C//DTD SVG 1.1//EN"
 "http://www.w3.org/Graphics/SVG/1.1/DTD/svg11.dtd">
<!-- Generated by graphviz version 2.44.0 (0)
 -->
<!-- Title: G Pages: 1 -->
<svg width="719pt" height="648pt"
 viewBox="0.00 0.00 719.28 648.00" xmlns="http://www.w3.org/2000/svg" xmlns:xlink="http://www.w3.org/1999/xlink">
<g id="graph0" class="graph" transform="scale(0.81 0.81) rotate(0) translate(4 794.2)">
<title>G</title>
<polygon fill="white" stroke="transparent" points="-4,4 -4,-794.2 882,-794.2 882,4 -4,4"/>
<g id="clust1" class="cluster">
<title>cluster_0</title>
<polygon fill="#000000" fill-opacity="0.058824" stroke="#000000" stroke-opacity="0.058824" points="8,-8.95 8,-660.37 870,-660.37 870,-8.95 8,-8.95"/>
<text text-anchor="middle" x="439" y="-645.17" font-family="Times-Roman" font-size="14.00">GHCup</text>
</g>
<g id="clust2" class="cluster">
<title>cluster_1</title>
<polygon fill="#000000" fill-opacity="0.058824" stroke="#000000" stroke-opacity="0.058824" points="190,-364.88 190,-541.72 450,-541.72 450,-364.88 190,-364.88"/>
<text text-anchor="middle" x="320" y="-526.52" font-family="Times-Roman" font-size="14.00">Download</text>
</g>
<g id="clust3" class="cluster">
<title>cluster_2</title>
<polygon fill="#000000" fill-opacity="0.058824" stroke="#000000" stroke-opacity="0.058824" points="271,-191.39 271,-355.93 452,-355.93 452,-191.39 271,-191.39"/>
<text text-anchor="middle" x="361.5" y="-340.73" font-family="Times-Roman" font-size="14.00">Types</text>
</g>
<g id="clust4" class="cluster">
<title>cluster_3</title>
<polygon fill="#000000" fill-opacity="0.058824" stroke="#000000" stroke-opacity="0.058824" points="566,-17.91 566,-576.42 862,-576.42 862,-17.91 566,-17.91"/>
<text text-anchor="middle" x="714" y="-561.22" font-family="Times-Roman" font-size="14.00">Utils</text>
</g>
<g id="clust5" class="cluster">
<title>cluster_4</title>
<polygon fill="#000000" fill-opacity="0.058824" stroke="#000000" stroke-opacity="0.058824" points="640,-271.98 640,-448.82 758,-448.82 758,-271.98 640,-271.98"/>
<text text-anchor="middle" x="699" y="-433.62" font-family="Times-Roman" font-size="14.00">File</text>
</g>
<g id="clust6" class="cluster">
<title>cluster_5</title>
<polygon fill="#000000" fill-opacity="0.058824" stroke="#000000" stroke-opacity="0.058824" points="583,-26.86 583,-110.81 653,-110.81 653,-26.86 583,-26.86"/>
<text text-anchor="middle" x="618" y="-95.61" font-family="Times-Roman" font-size="14.00">String</text>
</g>
<g id="clust7" class="cluster">
<title>cluster_6</title>
<polygon fill="#000000" fill-opacity="0.058824" stroke="#000000" stroke-opacity="0.058824" points="712,-457.78 712,-541.72 782,-541.72 782,-457.78 712,-457.78"/>
<text text-anchor="middle" x="747" y="-526.52" font-family="Times-Roman" font-size="14.00">Version</text>
</g>
<!-- u1 -->
<g id="node1" class="node">
<title>u1</title>
<ellipse fill="#ffffbb" stroke="black" stroke-width="2" cx="387" cy="-486.95" rx="55.49" ry="18"/>
<text text-anchor="middle" x="387" y="-483.25" font-family="Times-Roman" font-size="14.00">Download</text>
</g>
<!-- u12 -->
<g id="node7" class="node">
<title>u12</title>
<ellipse fill="#bbffff" stroke="black" stroke-width="2" cx="688" cy="-393.95" rx="27" ry="18"/>
<text text-anchor="middle" x="688" y="-390.25" font-family="Times-Roman" font-size="14.00">File</text>
</g>
<!-- u1&#45;&gt;u12 -->
<g id="edge15" class="edge">
<title>u1&#45;&gt;u12</title>
<path fill="none" stroke="black" d="M416.08,-471.48C425.43,-467.42 435.96,-463.44 446,-460.95 491.68,-449.63 616.67,-467.2 657,-442.95 665.62,-437.77 672.27,-429.17 677.16,-420.67"/>
<polygon fill="black" stroke="black" points="680.34,-422.15 681.79,-411.65 674.11,-418.95 680.34,-422.15"/>
</g>
<!-- u11 -->
<g id="node15" class="node">
<title>u11</title>
<ellipse fill="#bbffff" stroke="black" stroke-width="0" cx="603" cy="-393.95" rx="28.7" ry="18"/>
<text text-anchor="middle" x="603" y="-390.25" font-family="Times-Roman" font-size="14.00">Dirs</text>
</g>
<!-- u1&#45;&gt;u11 -->
<g id="edge14" class="edge">
<title>u1&#45;&gt;u11</title>
<path fill="none" stroke="black" d="M419.14,-472.31C427.86,-468.62 437.29,-464.63 446,-460.95 489.08,-442.77 538.85,-421.87 570.6,-408.54"/>
<polygon fill="black" stroke="black" points="571.98,-411.76 579.85,-404.66 569.27,-405.3 571.98,-411.76"/>
</g>
<!-- u13 -->
<g id="node18" class="node">
<title>u13</title>
<ellipse fill="#ffffbb" stroke="black" stroke-width="0" cx="109" cy="-300.95" rx="44.39" ry="18"/>
<text text-anchor="middle" x="109" y="-297.25" font-family="Times-Roman" font-size="14.00">Version</text>
</g>
<!-- u1&#45;&gt;u13 -->
<g id="edge13" class="edge">
<title>u1&#45;&gt;u13</title>
<path fill="none" stroke="black" d="M356.68,-471.88C346.23,-467.63 334.3,-463.44 323,-460.95 290.82,-453.87 49.58,-466.95 27,-442.95 4.16,-418.68 12.6,-398.02 27,-367.95 36.61,-347.88 55.63,-331.97 72.94,-320.81"/>
<polygon fill="black" stroke="black" points="75.07,-323.61 81.77,-315.4 71.41,-317.64 75.07,-323.61"/>
</g>
<!-- u17 -->
<g id="node2" class="node">
<title>u17</title>
<ellipse fill="#bbbbff" stroke="black" stroke-width="0" cx="332" cy="-393.95" rx="30.59" ry="18"/>
<text text-anchor="middle" x="332" y="-390.25" font-family="Times-Roman" font-size="14.00">Utils</text>
</g>
<!-- u5 -->
<g id="node6" class="node">
<title>u5</title>
<ellipse fill="#ffbbbb" stroke="black" stroke-width="0" cx="410" cy="-300.95" rx="33.6" ry="18"/>
<text text-anchor="middle" x="410" y="-297.25" font-family="Times-Roman" font-size="14.00">JSON</text>
</g>
<!-- u17&#45;&gt;u5 -->
<g id="edge16" class="edge">
<title>u17&#45;&gt;u5</title>
<path fill="none" stroke="black" d="M345.23,-377.52C357.37,-363.35 375.54,-342.16 389.55,-325.81"/>
<polygon fill="black" stroke="black" points="392.59,-327.64 396.44,-317.77 387.28,-323.09 392.59,-327.64"/>
</g>
<!-- u19 -->
<g id="node3" class="node">
<title>u19</title>
<ellipse fill="#bbbbff" stroke="black" stroke-width="0" cx="256" cy="-486.95" rx="57.69" ry="18"/>
<text text-anchor="middle" x="256" y="-483.25" font-family="Times-Roman" font-size="14.00">IOStreams</text>
</g>
<!-- u19&#45;&gt;u17 -->
<g id="edge17" class="edge">
<title>u19&#45;&gt;u17</title>
<path fill="none" stroke="black" d="M272.49,-469.68C280.19,-461.83 289.33,-452.14 297,-442.95 303.18,-435.56 309.51,-427.17 315.06,-419.49"/>
<polygon fill="black" stroke="black" points="318.21,-421.09 321.16,-410.91 312.51,-417.03 318.21,-421.09"/>
</g>
<!-- u3 -->
<g id="node4" class="node">
<title>u3</title>
<ellipse fill="#ffffbb" stroke="black" stroke-width="2" cx="399" cy="-220.95" rx="36.29" ry="18"/>
<text text-anchor="middle" x="399" y="-217.25" font-family="Times-Roman" font-size="14.00">Types</text>
</g>
<!-- u4 -->
<g id="node5" class="node">
<title>u4</title>
<ellipse fill="#ffbbbb" stroke="black" stroke-width="0" cx="319" cy="-300.95" rx="39.79" ry="18"/>
<text text-anchor="middle" x="319" y="-297.25" font-family="Times-Roman" font-size="14.00">Optics</text>
</g>
<!-- u4&#45;&gt;u3 -->
<g id="edge18" class="edge">
<title>u4&#45;&gt;u3</title>
<path fill="none" stroke="black" d="M335.19,-284.17C346.87,-272.78 362.8,-257.24 375.83,-244.55"/>
<polygon fill="black" stroke="black" points="378.39,-246.94 383.11,-237.45 373.5,-241.92 378.39,-246.94"/>
</g>
<!-- u6 -->
<g id="node12" class="node">
<title>u6</title>
<ellipse fill="#bbffff" stroke="black" stroke-width="0" cx="638" cy="-486.95" rx="64.19" ry="18"/>
<text text-anchor="middle" x="638" y="-483.25" font-family="Times-Roman" font-size="14.00">MegaParsec</text>
</g>
<!-- u5&#45;&gt;u6 -->
<g id="edge19" class="edge">
<title>u5&#45;&gt;u6</title>
<path fill="none" stroke="black" d="M425.28,-317.32C443.67,-335.87 472.3,-364.95 474,-367.95 491,-397.97 469.27,-418.9 494,-442.95 518.89,-467.15 536.76,-450.95 570,-460.95 577.45,-463.2 585.27,-465.82 592.85,-468.5"/>
<polygon fill="black" stroke="black" points="591.68,-471.8 602.27,-471.91 594.06,-465.22 591.68,-471.8"/>
</g>
<!-- u7 -->
<g id="node13" class="node">
<title>u7</title>
<ellipse fill="#bbffff" stroke="black" stroke-width="0" cx="618" cy="-220.95" rx="44.39" ry="18"/>
<text text-anchor="middle" x="618" y="-217.25" font-family="Times-Roman" font-size="14.00">Prelude</text>
</g>
<!-- u5&#45;&gt;u7 -->
<g id="edge20" class="edge">
<title>u5&#45;&gt;u7</title>
<path fill="none" stroke="black" d="M429.11,-285.89C434.97,-281.99 441.58,-277.99 448,-274.95 487.67,-256.18 535.63,-241.92 570.48,-232.95"/>
<polygon fill="black" stroke="black" points="571.56,-236.29 580.4,-230.45 569.85,-229.51 571.56,-236.29"/>
</g>
<!-- u9 -->
<g id="node8" class="node">
<title>u9</title>
<ellipse fill="#ffbbff" stroke="black" stroke-width="0" cx="699" cy="-300.95" rx="51.19" ry="18"/>
<text text-anchor="middle" x="699" y="-297.25" font-family="Times-Roman" font-size="14.00">Common</text>
</g>
<!-- u12&#45;&gt;u9 -->
<g id="edge30" class="edge">
<title>u12&#45;&gt;u9</title>
<path fill="none" stroke="black" d="M690.07,-375.84C691.65,-362.75 693.87,-344.43 695.69,-329.32"/>
<polygon fill="black" stroke="black" points="699.21,-329.34 696.94,-318.99 692.27,-328.5 699.21,-329.34"/>
</g>
<!-- u9&#45;&gt;u7 -->
<g id="edge31" class="edge">
<title>u9&#45;&gt;u7</title>
<path fill="none" stroke="black" d="M682.22,-283.79C670.52,-272.53 654.74,-257.34 641.76,-244.83"/>
<polygon fill="black" stroke="black" points="644.12,-242.24 634.48,-237.83 639.26,-247.29 644.12,-242.24"/>
</g>
<!-- u10 -->
<g id="node9" class="node">
<title>u10</title>
<ellipse fill="#77ff77" stroke="black" stroke-width="0" cx="618" cy="-55.95" rx="27" ry="18"/>
<text text-anchor="middle" x="618" y="-52.25" font-family="Times-Roman" font-size="14.00">QQ</text>
</g>
<!-- u16 -->
<g id="node10" class="node">
<title>u16</title>
<ellipse fill="#ffff77" stroke="black" stroke-width="0" cx="747" cy="-486.95" rx="27" ry="18"/>
<text text-anchor="middle" x="747" y="-483.25" font-family="Times-Roman" font-size="14.00">QQ</text>
</g>
<!-- u15 -->
<g id="node11" class="node">
<title>u15</title>
<ellipse fill="#ffffbb" stroke="black" stroke-width="2" cx="823" cy="-486.95" rx="30.59" ry="18"/>
<text text-anchor="middle" x="823" y="-483.25" font-family="Times-Roman" font-size="14.00">Utils</text>
</g>
<!-- u15&#45;&gt;u12 -->
<g id="edge22" class="edge">
<title>u15&#45;&gt;u12</title>
<path fill="none" stroke="black" d="M803.42,-472.71C797.8,-468.92 791.66,-464.77 786,-460.95 761.96,-444.74 734.59,-426.31 714.9,-413.05"/>
<polygon fill="black" stroke="black" points="716.68,-410.03 706.43,-407.35 712.77,-415.84 716.68,-410.03"/>
</g>
<!-- u15&#45;&gt;u11 -->
<g id="edge21" class="edge">
<title>u15&#45;&gt;u11</title>
<path fill="none" stroke="black" d="M805.88,-471.91C799.92,-467.72 792.97,-463.55 786,-460.95 723.08,-437.5 693.45,-477.7 636,-442.95 627.23,-437.65 620.23,-429.02 614.98,-420.54"/>
<polygon fill="black" stroke="black" points="617.89,-418.57 609.96,-411.54 611.78,-421.98 617.89,-418.57"/>
</g>
<!-- u6&#45;&gt;u3 -->
<g id="edge23" class="edge">
<title>u6&#45;&gt;u3</title>
<path fill="none" stroke="black" d="M608.52,-470.77C594.78,-463.16 578.53,-453.36 565,-442.95 527.38,-414.03 523.93,-400.08 489,-367.95 479.95,-359.63 474.21,-360.56 468,-349.95 450.82,-320.62 469.18,-304.85 453,-274.95 446.44,-262.83 436.18,-251.74 426.36,-242.87"/>
<polygon fill="black" stroke="black" points="428.53,-240.12 418.66,-236.26 423.97,-245.43 428.53,-240.12"/>
</g>
<!-- u8 -->
<g id="node14" class="node">
<title>u8</title>
<ellipse fill="#bbffff" stroke="black" stroke-width="0" cx="618" cy="-139.95" rx="42.49" ry="18"/>
<text text-anchor="middle" x="618" y="-136.25" font-family="Times-Roman" font-size="14.00">Logger</text>
</g>
<!-- u7&#45;&gt;u8 -->
<g id="edge25" class="edge">
<title>u7&#45;&gt;u8</title>
<path fill="none" stroke="black" stroke-dasharray="5,2" d="M618,-202.81C618,-192.67 618,-179.59 618,-168.07"/>
<polygon fill="black" stroke="black" points="621.5,-168.06 618,-158.06 614.5,-168.06 621.5,-168.06"/>
</g>
<!-- u2 -->
<g id="node17" class="node">
<title>u2</title>
<ellipse fill="#ffffbb" stroke="black" stroke-width="0" cx="520" cy="-300.95" rx="37.89" ry="18"/>
<text text-anchor="middle" x="520" y="-297.25" font-family="Times-Roman" font-size="14.00">Errors</text>
</g>
<!-- u7&#45;&gt;u2 -->
<g id="edge24" class="edge">
<title>u7&#45;&gt;u2</title>
<path fill="none" stroke="black" d="M598.83,-237.21C584.07,-248.96 563.49,-265.34 547.06,-278.42"/>
<polygon fill="black" stroke="black" points="544.54,-275.95 538.9,-284.91 548.9,-281.43 544.54,-275.95"/>
</g>
<!-- u8&#45;&gt;u4 -->
<g id="edge26" class="edge">
<title>u8&#45;&gt;u4</title>
<path fill="none" stroke="black" d="M576.88,-144.38C511.17,-150.66 386.55,-166.09 354,-194.95 331.93,-214.52 323.74,-248.37 320.73,-272.34"/>
<polygon fill="black" stroke="black" points="317.22,-272.27 319.67,-282.57 324.18,-272.99 317.22,-272.27"/>
</g>
<!-- u8&#45;&gt;u9 -->
<g id="edge27" class="edge">
<title>u8&#45;&gt;u9</title>
<path fill="none" stroke="black" stroke-dasharray="5,2" d="M637.21,-156.09C648.59,-166.01 662.41,-179.89 671,-194.95 684.9,-219.32 692.1,-250.8 695.69,-272.91"/>
<polygon fill="black" stroke="black" points="692.25,-273.56 697.18,-282.94 699.17,-272.53 692.25,-273.56"/>
</g>
<!-- u8&#45;&gt;u10 -->
<g id="edge28" class="edge">
<title>u8&#45;&gt;u10</title>
<path fill="none" stroke="black" d="M618,-121.56C618,-110.73 618,-96.56 618,-84.25"/>
<polygon fill="black" stroke="black" points="621.5,-84.04 618,-74.04 614.5,-84.04 621.5,-84.04"/>
</g>
<!-- u11&#45;&gt;u5 -->
<g id="edge29" class="edge">
<title>u11&#45;&gt;u5</title>
<path fill="none" stroke="black" d="M575.99,-387.58C537.44,-379.55 469,-363.89 448,-349.95 439.06,-344.02 431.26,-335.31 425.1,-326.92"/>
<polygon fill="black" stroke="black" points="427.82,-324.71 419.28,-318.44 422.05,-328.67 427.82,-324.71"/>
</g>
<!-- u0 -->
<g id="node16" class="node">
<title>u0</title>
<ellipse fill="#bbffbb" stroke="black" stroke-width="2" cx="627" cy="-605.95" rx="42.49" ry="18"/>
<text text-anchor="middle" x="627" y="-602.25" font-family="Times-Roman" font-size="14.00">GHCup</text>
</g>
<!-- u0&#45;&gt;u1 -->
<g id="edge4" class="edge">
<title>u0&#45;&gt;u1</title>
<path fill="none" stroke="black" d="M584.67,-604.4C545.83,-602.07 488.09,-593.82 446,-566.95 425.91,-554.13 410.22,-531.89 400.09,-514.27"/>
<polygon fill="black" stroke="black" points="402.91,-512.13 395.04,-505.04 396.77,-515.5 402.91,-512.13"/>
</g>
<!-- u0&#45;&gt;u16 -->
<g id="edge6" class="edge">
<title>u0&#45;&gt;u16</title>
<path fill="none" stroke="black" d="M663.33,-596.57C681.18,-590.83 701.84,-581.54 716,-566.95 729.77,-552.77 737.62,-531.76 741.97,-514.97"/>
<polygon fill="black" stroke="black" points="745.4,-515.69 744.26,-505.16 738.58,-514.11 745.4,-515.69"/>
</g>
<!-- u0&#45;&gt;u15 -->
<g id="edge5" class="edge">
<title>u0&#45;&gt;u15</title>
<path fill="none" stroke="black" d="M669.23,-604.64C704.08,-602.27 753,-593.85 786,-566.95 801.95,-553.96 811.39,-532.52 816.74,-515.25"/>
<polygon fill="black" stroke="black" points="820.24,-515.72 819.56,-505.15 813.5,-513.84 820.24,-515.72"/>
</g>
<!-- u14 -->
<g id="node19" class="node">
<title>u14</title>
<ellipse fill="#ffffbb" stroke="black" stroke-width="0" cx="508" cy="-486.95" rx="48.19" ry="18"/>
<text text-anchor="middle" x="508" y="-483.25" font-family="Times-Roman" font-size="14.00">Platform</text>
</g>
<!-- u0&#45;&gt;u14 -->
<g id="edge3" class="edge">
<title>u0&#45;&gt;u14</title>
<path fill="none" stroke="black" d="M599.25,-592.23C586.98,-585.76 572.9,-577.11 562,-566.95 545.64,-551.71 531.56,-530.66 521.88,-514.12"/>
<polygon fill="black" stroke="black" points="524.68,-511.96 516.71,-504.98 518.59,-515.41 524.68,-511.96"/>
</g>
<!-- u2&#45;&gt;u3 -->
<g id="edge7" class="edge">
<title>u2&#45;&gt;u3</title>
<path fill="none" stroke="black" d="M498.37,-286.01C479.01,-273.53 450.45,-255.12 428.91,-241.23"/>
<polygon fill="black" stroke="black" points="430.75,-238.25 420.45,-235.78 426.95,-244.14 430.75,-238.25"/>
</g>
<!-- u13&#45;&gt;u3 -->
<g id="edge8" class="edge">
<title>u13&#45;&gt;u3</title>
<path fill="none" stroke="black" d="M144.85,-290.31C198.89,-275.78 300.93,-248.33 357.9,-233.01"/>
<polygon fill="black" stroke="black" points="358.91,-236.36 367.66,-230.38 357.09,-229.6 358.91,-236.36"/>
</g>
<!-- u14&#45;&gt;u5 -->
<g id="edge9" class="edge">
<title>u14&#45;&gt;u5</title>
<path fill="none" stroke="black" d="M492.36,-469.49C485.88,-461.9 478.78,-452.48 474,-442.95 458.54,-412.12 468.2,-399.39 454,-367.95 447.34,-353.21 437.53,-338.1 428.85,-326.06"/>
<polygon fill="black" stroke="black" points="431.57,-323.84 422.81,-317.89 425.94,-328.01 431.57,-323.84"/>
</g>
<!-- u14&#45;&gt;u12 -->
<g id="edge10" class="edge">
<title>u14&#45;&gt;u12</title>
<path fill="none" stroke="black" d="M534.95,-471.89C543.43,-467.9 552.95,-463.86 562,-460.95 602.92,-447.83 621.35,-466.95 657,-442.95 665.13,-437.48 671.61,-429.08 676.49,-420.83"/>
<polygon fill="black" stroke="black" points="679.72,-422.21 681.33,-411.74 673.54,-418.92 679.72,-422.21"/>
</g>
<!-- u18 -->
<g id="node20" class="node">
<title>u18</title>
<ellipse fill="#ffffbb" stroke="black" stroke-width="0" cx="109" cy="-393.95" rx="73.39" ry="18"/>
<text text-anchor="middle" x="109" y="-390.25" font-family="Times-Roman" font-size="14.00">Requirements</text>
</g>
<!-- u18&#45;&gt;u5 -->
<g id="edge12" class="edge">
<title>u18&#45;&gt;u5</title>
<path fill="none" stroke="black" d="M147.73,-378.58C159.84,-374.58 173.34,-370.6 186,-367.95 265.56,-351.31 295.73,-387.15 368,-349.95 378.45,-344.58 387.45,-335.41 394.41,-326.53"/>
<polygon fill="black" stroke="black" points="397.39,-328.37 400.44,-318.22 391.73,-324.26 397.39,-328.37"/>
</g>
<!-- u18&#45;&gt;u13 -->
<g id="edge11" class="edge">
<title>u18&#45;&gt;u13</title>
<path fill="none" stroke="black" d="M109,-375.84C109,-362.75 109,-344.43 109,-329.32"/>
<polygon fill="black" stroke="black" points="112.5,-328.99 109,-318.99 105.5,-328.99 112.5,-328.99"/>
</g>
<!-- u20 -->
<g id="node21" class="node">
<title>u20</title>
<ellipse fill="#bbffbb" stroke="black" stroke-width="0" cx="627" cy="-769.95" rx="32.49" ry="18"/>
<text text-anchor="middle" x="627" y="-766.25" font-family="Times-Roman" font-size="14.00">Main</text>
</g>
<!-- u21 -->
<g id="node22" class="node">
<title>u21</title>
<ellipse fill="#bbffbb" stroke="black" stroke-width="0" cx="627" cy="-689.95" rx="46.29" ry="18"/>
<text text-anchor="middle" x="627" y="-686.25" font-family="Times-Roman" font-size="14.00">Validate</text>
</g>
<!-- u20&#45;&gt;u21 -->
<g id="edge1" class="edge">
<title>u20&#45;&gt;u21</title>
<path fill="none" stroke="black" d="M627,-751.64C627,-741.85 627,-729.38 627,-718.29"/>
<polygon fill="black" stroke="black" points="630.5,-718.22 627,-708.22 623.5,-718.22 630.5,-718.22"/>
</g>
<!-- u21&#45;&gt;u0 -->
<g id="edge2" class="edge">
<title>u21&#45;&gt;u0</title>
<path fill="none" stroke="black" d="M627,-671.56C627,-660.73 627,-646.56 627,-634.25"/>
<polygon fill="black" stroke="black" points="630.5,-634.04 627,-624.04 623.5,-634.04 630.5,-634.04"/>
</g>
</g>
</svg>
