<?xml version="1.0" encoding="UTF-8" standalone="no"?>
<!DOCTYPE svg PUBLIC "-//W3C//DTD SVG 1.1//EN"
 "http://www.w3.org/Graphics/SVG/1.1/DTD/svg11.dtd">
<!-- Generated by graphviz version 2.44.0 (0)
 -->
<!-- Title: G Pages: 1 -->
<svg width="720pt" height="648pt"
 viewBox="0.00 0.00 719.60 648.00" xmlns="http://www.w3.org/2000/svg" xmlns:xlink="http://www.w3.org/1999/xlink">
<g id="graph0" class="graph" transform="scale(0.45 0.45) rotate(0) translate(4 1421.5)">
<title>G</title>
<polygon fill="white" stroke="transparent" points="-4,4 -4,-1421.5 1579,-1421.5 1579,4 -4,4"/>
<g id="clust1" class="cluster">
<title>cluster_0</title>
<polygon fill="#000000" fill-opacity="0.058824" stroke="#000000" stroke-opacity="0.058824" points="8,-12.99 8,-1346.06 1567,-1346.06 1567,-12.99 8,-12.99"/>
<text text-anchor="middle" x="787.5" y="-1330.86" font-family="Times-Roman" font-size="14.00">GHCup</text>
</g>
<g id="clust2" class="cluster">
<title>cluster_1</title>
<polygon fill="#000000" fill-opacity="0.058824" stroke="#000000" stroke-opacity="0.058824" points="1102,-529.33 1102,-823.22 1362,-823.22 1362,-529.33 1102,-529.33"/>
<text text-anchor="middle" x="1232" y="-808.02" font-family="Times-Roman" font-size="14.00">Download</text>
</g>
<g id="clust3" class="cluster">
<title>cluster_2</title>
<polygon fill="#000000" fill-opacity="0.058824" stroke="#000000" stroke-opacity="0.058824" points="16,-940.13 16,-1295.72 1559,-1295.72 1559,-940.13 16,-940.13"/>
<text text-anchor="middle" x="787.5" y="-1280.52" font-family="Times-Roman" font-size="14.00">OptParse</text>
</g>
<g id="clust4" class="cluster">
<title>cluster_3</title>
<polygon fill="#000000" fill-opacity="0.058824" stroke="#000000" stroke-opacity="0.058824" points="1196,-277.65 1196,-516.34 1377,-516.34 1377,-277.65 1196,-277.65"/>
<text text-anchor="middle" x="1286.5" y="-501.14" font-family="Times-Roman" font-size="14.00">Types</text>
</g>
<g id="clust5" class="cluster">
<title>cluster_4</title>
<polygon fill="#000000" fill-opacity="0.058824" stroke="#000000" stroke-opacity="0.058824" points="586,-25.98 586,-701.44 1082,-701.44 1082,-25.98 586,-25.98"/>
<text text-anchor="middle" x="834" y="-686.24" font-family="Times-Roman" font-size="14.00">Utils</text>
</g>
<g id="clust6" class="cluster">
<title>cluster_5</title>
<polygon fill="#000000" fill-opacity="0.058824" stroke="#000000" stroke-opacity="0.058824" points="744,-394.56 744,-651.11 862,-651.11 862,-394.56 744,-394.56"/>
<text text-anchor="middle" x="803" y="-635.91" font-family="Times-Roman" font-size="14.00">File</text>
</g>
<g id="clust7" class="cluster">
<title>cluster_6</title>
<polygon fill="#000000" fill-opacity="0.058824" stroke="#000000" stroke-opacity="0.058824" points="995,-38.97 995,-160.75 1065,-160.75 1065,-38.97 995,-38.97"/>
<text text-anchor="middle" x="1030" y="-145.55" font-family="Times-Roman" font-size="14.00">String</text>
</g>
<g id="clust8" class="cluster">
<title>cluster_7</title>
<polygon fill="#000000" fill-opacity="0.058824" stroke="#000000" stroke-opacity="0.058824" points="594,-529.33 594,-651.11 664,-651.11 664,-529.33 594,-529.33"/>
<text text-anchor="middle" x="629" y="-635.91" font-family="Times-Roman" font-size="14.00">Version</text>
</g>
<!-- u1 -->
<g id="node1" class="node">
<title>u1</title>
<ellipse fill="#ffffbb" stroke="black" stroke-width="2" cx="1165" cy="-743.99" rx="55.49" ry="18"/>
<text text-anchor="middle" x="1165" y="-740.29" font-family="Times-Roman" font-size="14.00">Download</text>
</g>
<!-- u12 -->
<g id="node24" class="node">
<title>u12</title>
<ellipse fill="#ffbbff" stroke="black" stroke-width="2" cx="825" cy="-571.99" rx="27" ry="18"/>
<text text-anchor="middle" x="825" y="-568.29" font-family="Times-Roman" font-size="14.00">File</text>
</g>
<!-- u1&#45;&gt;u12 -->
<g id="edge13" class="edge">
<title>u1&#45;&gt;u12</title>
<path fill="none" stroke="black" d="M1125,-731.45C1042,-707.49 858.55,-654.33 856,-651.99 841.25,-638.47 833.42,-617.06 829.33,-599.94"/>
<polygon fill="black" stroke="black" points="832.71,-599.01 827.23,-589.94 825.86,-600.45 832.71,-599.01"/>
</g>
<!-- u11 -->
<g id="node32" class="node">
<title>u11</title>
<ellipse fill="#ffbbff" stroke="black" stroke-width="0" cx="1045" cy="-571.99" rx="28.7" ry="18"/>
<text text-anchor="middle" x="1045" y="-568.29" font-family="Times-Roman" font-size="14.00">Dirs</text>
</g>
<!-- u1&#45;&gt;u11 -->
<g id="edge12" class="edge">
<title>u1&#45;&gt;u11</title>
<path fill="none" stroke="black" d="M1152.43,-726.38C1138.8,-708.25 1116.51,-678.31 1098,-651.99 1085.29,-633.92 1071.4,-613.17 1061.02,-597.47"/>
<polygon fill="black" stroke="black" points="1063.78,-595.29 1055.36,-588.87 1057.94,-599.14 1063.78,-595.29"/>
</g>
<!-- u13 -->
<g id="node35" class="node">
<title>u13</title>
<ellipse fill="#ffffbb" stroke="black" stroke-width="0" cx="1414" cy="-571.99" rx="44.39" ry="18"/>
<text text-anchor="middle" x="1414" y="-568.29" font-family="Times-Roman" font-size="14.00">Version</text>
</g>
<!-- u1&#45;&gt;u13 -->
<g id="edge11" class="edge">
<title>u1&#45;&gt;u13</title>
<path fill="none" stroke="black" d="M1206.8,-732.08C1250.56,-718.96 1319.26,-693.39 1366,-651.99 1382.37,-637.49 1394.91,-616.04 1403.06,-599.16"/>
<polygon fill="black" stroke="black" points="1406.35,-600.37 1407.35,-589.82 1399.99,-597.45 1406.35,-600.37"/>
</g>
<!-- u17 -->
<g id="node2" class="node">
<title>u17</title>
<ellipse fill="#bbbbff" stroke="black" stroke-width="0" cx="1267" cy="-571.99" rx="30.59" ry="18"/>
<text text-anchor="middle" x="1267" y="-568.29" font-family="Times-Roman" font-size="14.00">Utils</text>
</g>
<!-- u5 -->
<g id="node23" class="node">
<title>u5</title>
<ellipse fill="#bbffff" stroke="black" stroke-width="0" cx="1238" cy="-436.99" rx="33.6" ry="18"/>
<text text-anchor="middle" x="1238" y="-433.29" font-family="Times-Roman" font-size="14.00">JSON</text>
</g>
<!-- u17&#45;&gt;u5 -->
<g id="edge14" class="edge">
<title>u17&#45;&gt;u5</title>
<path fill="none" stroke="black" d="M1263.27,-553.87C1258.35,-531.33 1249.65,-491.44 1243.86,-464.85"/>
<polygon fill="black" stroke="black" points="1247.27,-464.06 1241.72,-455.04 1240.43,-465.56 1247.27,-464.06"/>
</g>
<!-- u19 -->
<g id="node3" class="node">
<title>u19</title>
<ellipse fill="#bbbbff" stroke="black" stroke-width="0" cx="1296" cy="-743.99" rx="57.69" ry="18"/>
<text text-anchor="middle" x="1296" y="-740.29" font-family="Times-Roman" font-size="14.00">IOStreams</text>
</g>
<!-- u19&#45;&gt;u17 -->
<g id="edge15" class="edge">
<title>u19&#45;&gt;u17</title>
<path fill="none" stroke="black" d="M1293.06,-725.75C1288.01,-696.15 1277.65,-635.42 1271.63,-600.1"/>
<polygon fill="black" stroke="black" points="1275.04,-599.29 1269.9,-590.02 1268.14,-600.46 1275.04,-599.29"/>
</g>
<!-- u21 -->
<g id="node4" class="node">
<title>u21</title>
<ellipse fill="#ffffbb" stroke="black" stroke-width="2" cx="742" cy="-1215.99" rx="51.99" ry="18"/>
<text text-anchor="middle" x="742" y="-1212.29" font-family="Times-Roman" font-size="14.00">OptParse</text>
</g>
<!-- u23 -->
<g id="node6" class="node">
<title>u23</title>
<ellipse fill="#ffbbbb" stroke="black" stroke-width="0" cx="846" cy="-1098.99" rx="38.19" ry="18"/>
<text text-anchor="middle" x="846" y="-1095.29" font-family="Times-Roman" font-size="14.00">Install</text>
</g>
<!-- u21&#45;&gt;u23 -->
<g id="edge16" class="edge">
<title>u21&#45;&gt;u23</title>
<path fill="none" stroke="black" d="M756.9,-1198.51C774.61,-1178.93 804.29,-1146.11 824.49,-1123.77"/>
<polygon fill="black" stroke="black" points="827.35,-1125.83 831.46,-1116.07 822.16,-1121.13 827.35,-1125.83"/>
</g>
<!-- u24 -->
<g id="node7" class="node">
<title>u24</title>
<ellipse fill="#ffbbbb" stroke="black" stroke-width="0" cx="929" cy="-1098.99" rx="27" ry="18"/>
<text text-anchor="middle" x="929" y="-1095.29" font-family="Times-Roman" font-size="14.00">Set</text>
</g>
<!-- u21&#45;&gt;u24 -->
<g id="edge17" class="edge">
<title>u21&#45;&gt;u24</title>
<path fill="none" stroke="black" d="M766.45,-1199.96C801.13,-1178.63 864.45,-1139.69 900.98,-1117.22"/>
<polygon fill="black" stroke="black" points="902.97,-1120.1 909.66,-1111.88 899.31,-1114.14 902.97,-1120.1"/>
</g>
<!-- u25 -->
<g id="node8" class="node">
<title>u25</title>
<ellipse fill="#ffbbbb" stroke="black" stroke-width="0" cx="1197" cy="-1098.99" rx="38.19" ry="18"/>
<text text-anchor="middle" x="1197" y="-1095.29" font-family="Times-Roman" font-size="14.00">UnSet</text>
</g>
<!-- u21&#45;&gt;u25 -->
<g id="edge18" class="edge">
<title>u21&#45;&gt;u25</title>
<path fill="none" stroke="black" d="M785.46,-1206.08C860.33,-1190.39 1018.18,-1155.79 1149,-1116.99 1152.09,-1116.07 1155.28,-1115.07 1158.47,-1114.03"/>
<polygon fill="black" stroke="black" points="1159.62,-1117.34 1167.97,-1110.82 1157.37,-1110.7 1159.62,-1117.34"/>
</g>
<!-- u26 -->
<g id="node9" class="node">
<title>u26</title>
<ellipse fill="#ffbbbb" stroke="black" stroke-width="0" cx="1001" cy="-1098.99" rx="27" ry="18"/>
<text text-anchor="middle" x="1001" y="-1095.29" font-family="Times-Roman" font-size="14.00">Rm</text>
</g>
<!-- u21&#45;&gt;u26 -->
<g id="edge19" class="edge">
<title>u21&#45;&gt;u26</title>
<path fill="none" stroke="black" d="M773.51,-1201.46C816.81,-1182.8 897.08,-1147.94 965,-1116.99 966.79,-1116.17 968.63,-1115.33 970.49,-1114.47"/>
<polygon fill="black" stroke="black" points="972.15,-1117.56 979.72,-1110.15 969.18,-1111.21 972.15,-1117.56"/>
</g>
<!-- u27 -->
<g id="node10" class="node">
<title>u27</title>
<ellipse fill="#ffbbbb" stroke="black" stroke-width="0" cx="1093" cy="-1098.99" rx="47.39" ry="18"/>
<text text-anchor="middle" x="1093" y="-1095.29" font-family="Times-Roman" font-size="14.00">Compile</text>
</g>
<!-- u21&#45;&gt;u27 -->
<g id="edge20" class="edge">
<title>u21&#45;&gt;u27</title>
<path fill="none" stroke="black" d="M778.57,-1203.01C843.42,-1181.76 978.33,-1137.56 1048.47,-1114.58"/>
<polygon fill="black" stroke="black" points="1049.92,-1117.79 1058.34,-1111.35 1047.74,-1111.13 1049.92,-1117.79"/>
</g>
<!-- u28 -->
<g id="node11" class="node">
<title>u28</title>
<ellipse fill="#ffbbbb" stroke="black" stroke-width="0" cx="64" cy="-1098.99" rx="40.09" ry="18"/>
<text text-anchor="middle" x="64" y="-1095.29" font-family="Times-Roman" font-size="14.00">Config</text>
</g>
<!-- u21&#45;&gt;u28 -->
<g id="edge21" class="edge">
<title>u21&#45;&gt;u28</title>
<path fill="none" stroke="black" d="M692.47,-1210.33C585.48,-1199.59 325.33,-1169.91 113,-1116.99 109.85,-1116.21 106.62,-1115.31 103.4,-1114.34"/>
<polygon fill="black" stroke="black" points="104.39,-1110.98 93.8,-1111.28 102.27,-1117.65 104.39,-1110.98"/>
</g>
<!-- u29 -->
<g id="node12" class="node">
<title>u29</title>
<ellipse fill="#ffbbbb" stroke="black" stroke-width="0" cx="415" cy="-1098.99" rx="46.59" ry="18"/>
<text text-anchor="middle" x="415" y="-1095.29" font-family="Times-Roman" font-size="14.00">Whereis</text>
</g>
<!-- u21&#45;&gt;u29 -->
<g id="edge22" class="edge">
<title>u21&#45;&gt;u29</title>
<path fill="none" stroke="black" d="M706.69,-1202.57C646.37,-1181.36 523.67,-1138.21 458.29,-1115.21"/>
<polygon fill="black" stroke="black" points="459.28,-1111.85 448.69,-1111.84 456.96,-1118.46 459.28,-1111.85"/>
</g>
<!-- u30 -->
<g id="node13" class="node">
<title>u30</title>
<ellipse fill="#ffbbbb" stroke="black" stroke-width="0" cx="507" cy="-1098.99" rx="27" ry="18"/>
<text text-anchor="middle" x="507" y="-1095.29" font-family="Times-Roman" font-size="14.00">List</text>
</g>
<!-- u21&#45;&gt;u30 -->
<g id="edge23" class="edge">
<title>u21&#45;&gt;u30</title>
<path fill="none" stroke="black" d="M713.18,-1200.89C668.44,-1178.99 582.69,-1137.03 537.15,-1114.75"/>
<polygon fill="black" stroke="black" points="538.6,-1111.55 528.07,-1110.3 535.52,-1117.84 538.6,-1111.55"/>
</g>
<!-- u31 -->
<g id="node14" class="node">
<title>u31</title>
<ellipse fill="#ffbbbb" stroke="black" stroke-width="0" cx="1303" cy="-1098.99" rx="50.09" ry="18"/>
<text text-anchor="middle" x="1303" y="-1095.29" font-family="Times-Roman" font-size="14.00">Upgrade</text>
</g>
<!-- u21&#45;&gt;u31 -->
<g id="edge24" class="edge">
<title>u21&#45;&gt;u31</title>
<path fill="none" stroke="black" d="M787.97,-1207.41C876.68,-1192.47 1077.4,-1157.17 1244,-1116.99 1248.02,-1116.02 1252.18,-1114.95 1256.34,-1113.84"/>
<polygon fill="black" stroke="black" points="1257.28,-1117.21 1265.99,-1111.19 1255.42,-1110.46 1257.28,-1117.21"/>
</g>
<!-- u32 -->
<g id="node15" class="node">
<title>u32</title>
<ellipse fill="#ffbbbb" stroke="black" stroke-width="0" cx="614" cy="-1098.99" rx="61.99" ry="18"/>
<text text-anchor="middle" x="614" y="-1095.29" font-family="Times-Roman" font-size="14.00">ChangeLog</text>
</g>
<!-- u21&#45;&gt;u32 -->
<g id="edge25" class="edge">
<title>u21&#45;&gt;u32</title>
<path fill="none" stroke="black" d="M724.2,-1199C702.26,-1179.29 664.8,-1145.63 639.73,-1123.11"/>
<polygon fill="black" stroke="black" points="641.84,-1120.29 632.06,-1116.21 637.16,-1125.5 641.84,-1120.29"/>
</g>
<!-- u33 -->
<g id="node16" class="node">
<title>u33</title>
<ellipse fill="#ffbbbb" stroke="black" stroke-width="0" cx="742" cy="-1098.99" rx="48.19" ry="18"/>
<text text-anchor="middle" x="742" y="-1095.29" font-family="Times-Roman" font-size="14.00">Prefetch</text>
</g>
<!-- u21&#45;&gt;u33 -->
<g id="edge26" class="edge">
<title>u21&#45;&gt;u33</title>
<path fill="none" stroke="black" d="M742,-1197.52C742,-1178.93 742,-1149.23 742,-1127.49"/>
<polygon fill="black" stroke="black" points="745.5,-1127.24 742,-1117.24 738.5,-1127.24 745.5,-1127.24"/>
</g>
<!-- u34 -->
<g id="node17" class="node">
<title>u34</title>
<ellipse fill="#ffbbbb" stroke="black" stroke-width="0" cx="235" cy="-1098.99" rx="27" ry="18"/>
<text text-anchor="middle" x="235" y="-1095.29" font-family="Times-Roman" font-size="14.00">GC</text>
</g>
<!-- u21&#45;&gt;u34 -->
<g id="edge27" class="edge">
<title>u21&#45;&gt;u34</title>
<path fill="none" stroke="black" d="M694.23,-1208.86C608.04,-1196.96 421.48,-1167.38 271,-1116.99 269.08,-1116.35 267.13,-1115.63 265.19,-1114.86"/>
<polygon fill="black" stroke="black" points="266.16,-1111.47 255.6,-1110.73 263.4,-1117.9 266.16,-1111.47"/>
</g>
<!-- u35 -->
<g id="node18" class="node">
<title>u35</title>
<ellipse fill="#ffbbbb" stroke="black" stroke-width="0" cx="315" cy="-1098.99" rx="35.19" ry="18"/>
<text text-anchor="middle" x="315" y="-1095.29" font-family="Times-Roman" font-size="14.00">DInfo</text>
</g>
<!-- u21&#45;&gt;u35 -->
<g id="edge28" class="edge">
<title>u21&#45;&gt;u35</title>
<path fill="none" stroke="black" d="M699.03,-1205.74C627.68,-1189.99 480.59,-1155.89 359,-1116.99 356.46,-1116.18 353.84,-1115.29 351.23,-1114.37"/>
<polygon fill="black" stroke="black" points="352.41,-1111.08 341.81,-1110.93 350,-1117.65 352.41,-1111.08"/>
</g>
<!-- u36 -->
<g id="node19" class="node">
<title>u36</title>
<ellipse fill="#ffbbbb" stroke="black" stroke-width="0" cx="1461" cy="-1098.99" rx="90.18" ry="18"/>
<text text-anchor="middle" x="1461" y="-1095.29" font-family="Times-Roman" font-size="14.00">ToolRequirements</text>
</g>
<!-- u21&#45;&gt;u36 -->
<g id="edge29" class="edge">
<title>u21&#45;&gt;u36</title>
<path fill="none" stroke="black" d="M788.7,-1207.83C892.07,-1191.92 1148.03,-1152.27 1362,-1116.99 1369.56,-1115.74 1377.44,-1114.42 1385.32,-1113.09"/>
<polygon fill="black" stroke="black" points="1385.98,-1116.53 1395.25,-1111.41 1384.81,-1109.63 1385.98,-1116.53"/>
</g>
<!-- u37 -->
<g id="node20" class="node">
<title>u37</title>
<ellipse fill="#ffbbbb" stroke="black" stroke-width="0" cx="156" cy="-1098.99" rx="33.6" ry="18"/>
<text text-anchor="middle" x="156" y="-1095.29" font-family="Times-Roman" font-size="14.00">Nuke</text>
</g>
<!-- u21&#45;&gt;u37 -->
<g id="edge30" class="edge">
<title>u21&#45;&gt;u37</title>
<path fill="none" stroke="black" d="M693.33,-1209.49C597.41,-1197.93 377.73,-1167.91 199,-1116.99 196.41,-1116.25 193.76,-1115.42 191.12,-1114.52"/>
<polygon fill="black" stroke="black" points="192.23,-1111.2 181.64,-1111.08 189.84,-1117.78 192.23,-1111.2"/>
</g>
<!-- u22 -->
<g id="node5" class="node">
<title>u22</title>
<ellipse fill="#ffbbbb" stroke="black" stroke-width="0" cx="742" cy="-981.99" rx="51.19" ry="18"/>
<text text-anchor="middle" x="742" y="-978.29" font-family="Times-Roman" font-size="14.00">Common</text>
</g>
<!-- u0 -->
<g id="node33" class="node">
<title>u0</title>
<ellipse fill="#bbffbb" stroke="black" stroke-width="2" cx="705" cy="-864.99" rx="42.49" ry="18"/>
<text text-anchor="middle" x="705" y="-861.29" font-family="Times-Roman" font-size="14.00">GHCup</text>
</g>
<!-- u22&#45;&gt;u0 -->
<g id="edge31" class="edge">
<title>u22&#45;&gt;u0</title>
<path fill="none" stroke="black" d="M736.54,-964.02C730.5,-945.25 720.69,-914.76 713.61,-892.76"/>
<polygon fill="black" stroke="black" points="716.88,-891.48 710.48,-883.03 710.21,-893.62 716.88,-891.48"/>
</g>
<!-- u23&#45;&gt;u22 -->
<g id="edge32" class="edge">
<title>u23&#45;&gt;u22</title>
<path fill="none" stroke="black" d="M831.54,-1082C813.97,-1062.57 784.14,-1029.59 763.78,-1007.08"/>
<polygon fill="black" stroke="black" points="766.31,-1004.66 757.01,-999.59 761.12,-1009.35 766.31,-1004.66"/>
</g>
<!-- u24&#45;&gt;u22 -->
<g id="edge33" class="edge">
<title>u24&#45;&gt;u22</title>
<path fill="none" stroke="black" d="M909.69,-1086.12C877.99,-1066.62 814.52,-1027.58 775.4,-1003.53"/>
<polygon fill="black" stroke="black" points="776.84,-1000.31 766.49,-998.05 773.18,-1006.27 776.84,-1000.31"/>
</g>
<!-- u25&#45;&gt;u0 -->
<g id="edge34" class="edge">
<title>u25&#45;&gt;u0</title>
<path fill="none" stroke="black" d="M1170.9,-1085.68C1088.88,-1047.01 836.24,-927.88 741.44,-883.17"/>
<polygon fill="black" stroke="black" points="742.78,-879.94 732.24,-878.84 739.8,-886.27 742.78,-879.94"/>
</g>
<!-- u26&#45;&gt;u22 -->
<g id="edge35" class="edge">
<title>u26&#45;&gt;u22</title>
<path fill="none" stroke="black" d="M979.72,-1087.83C974.89,-1085.55 969.78,-1083.17 965,-1080.99 901.54,-1052.07 827.31,-1019.75 782.51,-1000.4"/>
<polygon fill="black" stroke="black" points="783.71,-997.11 773.14,-996.36 780.94,-1003.53 783.71,-997.11"/>
</g>
<!-- u27&#45;&gt;u22 -->
<g id="edge36" class="edge">
<title>u27&#45;&gt;u22</title>
<path fill="none" stroke="black" d="M1058.38,-1086.65C994.71,-1065.79 859,-1021.32 787.79,-997.99"/>
<polygon fill="black" stroke="black" points="788.78,-994.63 778.19,-994.85 786.6,-1001.29 788.78,-994.63"/>
</g>
<!-- u15 -->
<g id="node28" class="node">
<title>u15</title>
<ellipse fill="#ffffbb" stroke="black" stroke-width="2" cx="705" cy="-571.99" rx="30.59" ry="18"/>
<text text-anchor="middle" x="705" y="-568.29" font-family="Times-Roman" font-size="14.00">Utils</text>
</g>
<!-- u28&#45;&gt;u15 -->
<g id="edge37" class="edge">
<title>u28&#45;&gt;u15</title>
<path fill="none" stroke="black" d="M67.99,-1080.83C82.87,-1020.89 141.11,-819.44 271,-725.99 416.7,-621.17 526.05,-761.83 668,-651.99 684.52,-639.21 693.98,-617.26 699.19,-599.74"/>
<polygon fill="black" stroke="black" points="702.58,-600.61 701.79,-590.04 695.82,-598.8 702.58,-600.61"/>
</g>
<!-- u29&#45;&gt;u22 -->
<g id="edge38" class="edge">
<title>u29&#45;&gt;u22</title>
<path fill="none" stroke="black" d="M448.46,-1086.22C507.6,-1065.42 630.64,-1022.15 697.09,-998.78"/>
<polygon fill="black" stroke="black" points="698.59,-1001.97 706.86,-995.35 696.27,-995.36 698.59,-1001.97"/>
</g>
<!-- u30&#45;&gt;u22 -->
<g id="edge39" class="edge">
<title>u30&#45;&gt;u22</title>
<path fill="none" stroke="black" d="M528.27,-1087.58C568.07,-1068.1 654.29,-1025.91 704.21,-1001.48"/>
<polygon fill="black" stroke="black" points="705.94,-1004.53 713.38,-996.99 702.86,-998.25 705.94,-1004.53"/>
</g>
<!-- u31&#45;&gt;u0 -->
<g id="edge40" class="edge">
<title>u31&#45;&gt;u0</title>
<path fill="none" stroke="black" d="M1271.29,-1084.99C1209.35,-1059.66 1067.86,-1002.15 948,-955.99 877.11,-928.69 794.01,-898.24 745.65,-880.68"/>
<polygon fill="black" stroke="black" points="746.76,-877.36 736.17,-877.24 744.37,-883.94 746.76,-877.36"/>
</g>
<!-- u32&#45;&gt;u22 -->
<g id="edge41" class="edge">
<title>u32&#45;&gt;u22</title>
<path fill="none" stroke="black" d="M632.07,-1081.76C654.08,-1061.98 691.42,-1028.44 716.39,-1006"/>
<polygon fill="black" stroke="black" points="718.92,-1008.43 724.02,-999.14 714.25,-1003.22 718.92,-1008.43"/>
</g>
<!-- u33&#45;&gt;u22 -->
<g id="edge42" class="edge">
<title>u33&#45;&gt;u22</title>
<path fill="none" stroke="black" d="M742,-1080.52C742,-1061.93 742,-1032.23 742,-1010.49"/>
<polygon fill="black" stroke="black" points="745.5,-1010.24 742,-1000.24 738.5,-1010.24 745.5,-1010.24"/>
</g>
<!-- u34&#45;&gt;u0 -->
<g id="edge43" class="edge">
<title>u34&#45;&gt;u0</title>
<path fill="none" stroke="black" d="M253.73,-1086.02C294.34,-1060.34 393.93,-998.82 482,-955.99 543.91,-925.88 618.59,-897.22 663.9,-880.63"/>
<polygon fill="black" stroke="black" points="665.18,-883.89 673.38,-877.18 662.79,-877.31 665.18,-883.89"/>
</g>
<!-- u35&#45;&gt;u0 -->
<g id="edge44" class="edge">
<title>u35&#45;&gt;u0</title>
<path fill="none" stroke="black" d="M337.09,-1084.85C402.43,-1045.98 595.06,-931.39 672.36,-885.41"/>
<polygon fill="black" stroke="black" points="674.39,-888.27 681.2,-880.15 670.81,-882.25 674.39,-888.27"/>
</g>
<!-- u14 -->
<g id="node36" class="node">
<title>u14</title>
<ellipse fill="#ffffbb" stroke="black" stroke-width="0" cx="934" cy="-743.99" rx="48.19" ry="18"/>
<text text-anchor="middle" x="934" y="-740.29" font-family="Times-Roman" font-size="14.00">Platform</text>
</g>
<!-- u36&#45;&gt;u14 -->
<g id="edge45" class="edge">
<title>u36&#45;&gt;u14</title>
<path fill="none" stroke="black" d="M1436.29,-1081.44C1349.76,-1023.48 1060.5,-829.72 964.94,-765.71"/>
<polygon fill="black" stroke="black" points="966.82,-762.76 956.56,-760.1 962.93,-768.58 966.82,-762.76"/>
</g>
<!-- u18 -->
<g id="node37" class="node">
<title>u18</title>
<ellipse fill="#ffffbb" stroke="black" stroke-width="0" cx="1461" cy="-743.99" rx="73.39" ry="18"/>
<text text-anchor="middle" x="1461" y="-740.29" font-family="Times-Roman" font-size="14.00">Requirements</text>
</g>
<!-- u36&#45;&gt;u18 -->
<g id="edge46" class="edge">
<title>u36&#45;&gt;u18</title>
<path fill="none" stroke="black" d="M1461,-1080.96C1461,-1024.36 1461,-842.13 1461,-772.44"/>
<polygon fill="black" stroke="black" points="1464.5,-772.26 1461,-762.26 1457.5,-772.26 1464.5,-772.26"/>
</g>
<!-- u37&#45;&gt;u0 -->
<g id="edge47" class="edge">
<title>u37&#45;&gt;u0</title>
<path fill="none" stroke="black" d="M175.44,-1084.01C214.9,-1056.2 307.95,-993.37 394,-955.99 483.86,-916.95 595.52,-889.35 657.64,-875.71"/>
<polygon fill="black" stroke="black" points="658.52,-879.1 667.55,-873.56 657.03,-872.26 658.52,-879.1"/>
</g>
<!-- u3 -->
<g id="node21" class="node">
<title>u3</title>
<ellipse fill="#ffffbb" stroke="black" stroke-width="2" cx="1257" cy="-319.99" rx="36.29" ry="18"/>
<text text-anchor="middle" x="1257" y="-316.29" font-family="Times-Roman" font-size="14.00">Types</text>
</g>
<!-- u4 -->
<g id="node22" class="node">
<title>u4</title>
<ellipse fill="#bbffff" stroke="black" stroke-width="0" cx="1329" cy="-436.99" rx="39.79" ry="18"/>
<text text-anchor="middle" x="1329" y="-433.29" font-family="Times-Roman" font-size="14.00">Optics</text>
</g>
<!-- u4&#45;&gt;u3 -->
<g id="edge48" class="edge">
<title>u4&#45;&gt;u3</title>
<path fill="none" stroke="black" d="M1318.68,-419.51C1306.65,-400.3 1286.64,-368.33 1272.68,-346.04"/>
<polygon fill="black" stroke="black" points="1275.57,-344.05 1267.3,-337.44 1269.64,-347.77 1275.57,-344.05"/>
</g>
<!-- u6 -->
<g id="node29" class="node">
<title>u6</title>
<ellipse fill="#ffbbff" stroke="black" stroke-width="0" cx="934" cy="-571.99" rx="64.19" ry="18"/>
<text text-anchor="middle" x="934" y="-568.29" font-family="Times-Roman" font-size="14.00">MegaParsec</text>
</g>
<!-- u5&#45;&gt;u6 -->
<g id="edge49" class="edge">
<title>u5&#45;&gt;u6</title>
<path fill="none" stroke="black" d="M1225.64,-453.75C1216.72,-464.19 1203.86,-477.47 1190,-485.99 1117.08,-530.81 1088.16,-518.79 1007,-545.99 999.06,-548.65 990.64,-551.5 982.45,-554.3"/>
<polygon fill="black" stroke="black" points="981.32,-550.99 972.99,-557.53 983.58,-557.61 981.32,-550.99"/>
</g>
<!-- u7 -->
<g id="node30" class="node">
<title>u7</title>
<ellipse fill="#ffbbff" stroke="black" stroke-width="0" cx="1030" cy="-319.99" rx="44.39" ry="18"/>
<text text-anchor="middle" x="1030" y="-316.29" font-family="Times-Roman" font-size="14.00">Prelude</text>
</g>
<!-- u5&#45;&gt;u7 -->
<g id="edge50" class="edge">
<title>u5&#45;&gt;u7</title>
<path fill="none" stroke="black" d="M1218.11,-422.39C1212.34,-418.59 1205.98,-414.53 1200,-410.99 1154.95,-384.33 1101.33,-356.57 1066.52,-339.06"/>
<polygon fill="black" stroke="black" points="1067.74,-335.75 1057.23,-334.4 1064.6,-342.01 1067.74,-335.75"/>
</g>
<!-- u9 -->
<g id="node25" class="node">
<title>u9</title>
<ellipse fill="#77ff77" stroke="black" stroke-width="0" cx="803" cy="-436.99" rx="51.19" ry="18"/>
<text text-anchor="middle" x="803" y="-433.29" font-family="Times-Roman" font-size="14.00">Common</text>
</g>
<!-- u12&#45;&gt;u9 -->
<g id="edge59" class="edge">
<title>u12&#45;&gt;u9</title>
<path fill="none" stroke="black" d="M822.17,-553.87C818.46,-531.43 811.9,-491.79 807.5,-465.2"/>
<polygon fill="black" stroke="black" points="810.91,-464.33 805.82,-455.04 804,-465.48 810.91,-464.33"/>
</g>
<!-- u9&#45;&gt;u7 -->
<g id="edge60" class="edge">
<title>u9&#45;&gt;u7</title>
<path fill="none" stroke="black" d="M831.29,-421.66C872.57,-400.75 949.27,-361.89 994.36,-339.05"/>
<polygon fill="black" stroke="black" points="996.13,-342.07 1003.47,-334.43 992.97,-335.83 996.13,-342.07"/>
</g>
<!-- u10 -->
<g id="node26" class="node">
<title>u10</title>
<ellipse fill="#ffff77" stroke="black" stroke-width="0" cx="1030" cy="-80.99" rx="27" ry="18"/>
<text text-anchor="middle" x="1030" y="-77.29" font-family="Times-Roman" font-size="14.00">QQ</text>
</g>
<!-- u16 -->
<g id="node27" class="node">
<title>u16</title>
<ellipse fill="#7777ff" stroke="black" stroke-width="0" cx="629" cy="-571.99" rx="27" ry="18"/>
<text text-anchor="middle" x="629" y="-568.29" font-family="Times-Roman" font-size="14.00">QQ</text>
</g>
<!-- u15&#45;&gt;u1 -->
<g id="edge51" class="edge">
<title>u15&#45;&gt;u1</title>
<path fill="none" stroke="black" d="M707.81,-589.96C711.74,-608.15 720.7,-636.49 740,-651.99 869.4,-755.91 944.8,-686.54 1106,-725.99 1109.21,-726.78 1112.51,-727.62 1115.82,-728.5"/>
<polygon fill="black" stroke="black" points="1115.2,-731.95 1125.77,-731.2 1117.04,-725.2 1115.2,-731.95"/>
</g>
<!-- u6&#45;&gt;u3 -->
<g id="edge52" class="edge">
<title>u6&#45;&gt;u3</title>
<path fill="none" stroke="black" d="M972.89,-557.62C1042.12,-533.81 1179.56,-486.5 1180,-485.99 1202.36,-460.38 1181.75,-442.3 1195,-410.99 1205.36,-386.51 1222.94,-361.88 1236.75,-344.58"/>
<polygon fill="black" stroke="black" points="1239.56,-346.68 1243.17,-336.72 1234.13,-342.25 1239.56,-346.68"/>
</g>
<!-- u8 -->
<g id="node31" class="node">
<title>u8</title>
<ellipse fill="#ffbbff" stroke="black" stroke-width="0" cx="1030" cy="-202.99" rx="42.49" ry="18"/>
<text text-anchor="middle" x="1030" y="-199.29" font-family="Times-Roman" font-size="14.00">Logger</text>
</g>
<!-- u7&#45;&gt;u8 -->
<g id="edge54" class="edge">
<title>u7&#45;&gt;u8</title>
<path fill="none" stroke="black" stroke-dasharray="5,2" d="M1030,-301.52C1030,-282.93 1030,-253.23 1030,-231.49"/>
<polygon fill="black" stroke="black" points="1033.5,-231.24 1030,-221.24 1026.5,-231.24 1033.5,-231.24"/>
</g>
<!-- u2 -->
<g id="node34" class="node">
<title>u2</title>
<ellipse fill="#ffffbb" stroke="black" stroke-width="0" cx="1128" cy="-436.99" rx="37.89" ry="18"/>
<text text-anchor="middle" x="1128" y="-433.29" font-family="Times-Roman" font-size="14.00">Errors</text>
</g>
<!-- u7&#45;&gt;u2 -->
<g id="edge53" class="edge">
<title>u7&#45;&gt;u2</title>
<path fill="none" stroke="black" d="M1043.83,-337.21C1060.5,-356.78 1088.66,-389.83 1107.78,-412.26"/>
<polygon fill="black" stroke="black" points="1105.22,-414.66 1114.37,-420 1110.55,-410.12 1105.22,-414.66"/>
</g>
<!-- u8&#45;&gt;u4 -->
<g id="edge55" class="edge">
<title>u8&#45;&gt;u4</title>
<path fill="none" stroke="black" d="M1072.08,-205.27C1132.49,-209.51 1242.99,-226.65 1302,-293.99 1329.81,-325.73 1332.74,-377.05 1331.47,-408.52"/>
<polygon fill="black" stroke="black" points="1327.96,-408.58 1330.88,-418.77 1334.95,-408.98 1327.96,-408.58"/>
</g>
<!-- u8&#45;&gt;u9 -->
<g id="edge56" class="edge">
<title>u8&#45;&gt;u9</title>
<path fill="none" stroke="black" stroke-dasharray="5,2" d="M1014.36,-219.98C975.12,-260.08 872.38,-365.08 826.14,-412.34"/>
<polygon fill="black" stroke="black" points="823.45,-410.08 818.96,-419.68 828.46,-414.98 823.45,-410.08"/>
</g>
<!-- u8&#45;&gt;u10 -->
<g id="edge57" class="edge">
<title>u8&#45;&gt;u10</title>
<path fill="none" stroke="black" d="M1030,-184.8C1030,-165.1 1030,-132.57 1030,-109.38"/>
<polygon fill="black" stroke="black" points="1033.5,-109.15 1030,-99.15 1026.5,-109.15 1033.5,-109.15"/>
</g>
<!-- u11&#45;&gt;u5 -->
<g id="edge58" class="edge">
<title>u11&#45;&gt;u5</title>
<path fill="none" stroke="black" d="M1062.1,-557.23C1067.11,-553.42 1072.68,-549.4 1078,-545.99 1125.54,-515.51 1144.66,-519.65 1190,-485.99 1199.71,-478.78 1209.34,-469.64 1217.41,-461.28"/>
<polygon fill="black" stroke="black" points="1220.04,-463.58 1224.33,-453.89 1214.94,-458.8 1220.04,-463.58"/>
</g>
<!-- u0&#45;&gt;u16 -->
<g id="edge4" class="edge">
<title>u0&#45;&gt;u16</title>
<path fill="none" stroke="black" d="M700.59,-847.09C687.91,-798.57 651.35,-658.57 635.96,-599.64"/>
<polygon fill="black" stroke="black" points="639.34,-598.73 633.43,-589.94 632.57,-600.5 639.34,-598.73"/>
</g>
<!-- u0&#45;&gt;u15 -->
<g id="edge3" class="edge">
<title>u0&#45;&gt;u15</title>
<path fill="none" stroke="black" d="M705,-846.66C705,-797.93 705,-659.45 705,-600.31"/>
<polygon fill="black" stroke="black" points="708.5,-600.23 705,-590.23 701.5,-600.23 708.5,-600.23"/>
</g>
<!-- u0&#45;&gt;u14 -->
<g id="edge2" class="edge">
<title>u0&#45;&gt;u14</title>
<path fill="none" stroke="black" d="M730.82,-850.57C771.64,-829.36 851.2,-788.02 897.73,-763.84"/>
<polygon fill="black" stroke="black" points="899.59,-766.81 906.85,-759.1 896.37,-760.6 899.59,-766.81"/>
</g>
<!-- u2&#45;&gt;u3 -->
<g id="edge5" class="edge">
<title>u2&#45;&gt;u3</title>
<path fill="none" stroke="black" d="M1145.13,-420.72C1167.39,-400.87 1206.44,-366.06 1232.01,-343.27"/>
<polygon fill="black" stroke="black" points="1234.66,-345.59 1239.8,-336.32 1230.01,-340.37 1234.66,-345.59"/>
</g>
<!-- u13&#45;&gt;u3 -->
<g id="edge6" class="edge">
<title>u13&#45;&gt;u3</title>
<path fill="none" stroke="black" d="M1413.93,-553.61C1413.03,-522.51 1407.48,-456.35 1378,-410.99 1356.72,-378.25 1319.17,-353.11 1291.53,-337.83"/>
<polygon fill="black" stroke="black" points="1293.04,-334.67 1282.57,-333.03 1289.73,-340.84 1293.04,-334.67"/>
</g>
<!-- u14&#45;&gt;u5 -->
<g id="edge7" class="edge">
<title>u14&#45;&gt;u5</title>
<path fill="none" stroke="black" d="M970.19,-731.9C1005.99,-718.88 1059.19,-693.62 1086,-651.99 1111.67,-612.13 1073.1,-586.34 1098,-545.99 1123.63,-504.44 1152.09,-516.75 1190,-485.99 1199.39,-478.37 1208.96,-469.15 1217.06,-460.83"/>
<polygon fill="black" stroke="black" points="1219.67,-463.17 1224.04,-453.52 1214.6,-458.34 1219.67,-463.17"/>
</g>
<!-- u14&#45;&gt;u12 -->
<g id="edge8" class="edge">
<title>u14&#45;&gt;u12</title>
<path fill="none" stroke="black" d="M917.2,-726.88C899.99,-709.65 873.37,-680.88 856,-651.99 846.1,-635.52 838.24,-615.33 832.91,-599.48"/>
<polygon fill="black" stroke="black" points="836.18,-598.22 829.78,-589.77 829.52,-600.36 836.18,-598.22"/>
</g>
<!-- u18&#45;&gt;u5 -->
<g id="edge10" class="edge">
<title>u18&#45;&gt;u5</title>
<path fill="none" stroke="black" d="M1467.83,-725.94C1481.37,-689.08 1507.02,-600.87 1467,-545.99 1415.57,-475.47 1352.95,-533.91 1280,-485.99 1270.56,-479.79 1261.98,-470.91 1255.06,-462.47"/>
<polygon fill="black" stroke="black" points="1257.62,-460.06 1248.74,-454.29 1252.09,-464.34 1257.62,-460.06"/>
</g>
<!-- u18&#45;&gt;u13 -->
<g id="edge9" class="edge">
<title>u18&#45;&gt;u13</title>
<path fill="none" stroke="black" d="M1456.23,-725.75C1448.05,-696.15 1431.26,-635.42 1421.5,-600.1"/>
<polygon fill="black" stroke="black" points="1424.75,-598.72 1418.71,-590.02 1418,-600.59 1424.75,-598.72"/>
</g>
<!-- u20 -->
<g id="node38" class="node">
<title>u20</title>
<ellipse fill="#bbffbb" stroke="black" stroke-width="0" cx="742" cy="-1387.99" rx="32.49" ry="18"/>
<text text-anchor="middle" x="742" y="-1384.29" font-family="Times-Roman" font-size="14.00">Main</text>
</g>
<!-- u20&#45;&gt;u21 -->
<g id="edge1" class="edge">
<title>u20&#45;&gt;u21</title>
<path fill="none" stroke="black" d="M742,-1369.75C742,-1340.15 742,-1279.42 742,-1244.1"/>
<polygon fill="black" stroke="black" points="745.5,-1244.02 742,-1234.02 738.5,-1244.02 745.5,-1244.02"/>
</g>
</g>
</svg>
