<?xml version="1.0" encoding="UTF-8" standalone="no"?>
<!DOCTYPE svg PUBLIC "-//W3C//DTD SVG 1.1//EN"
 "http://www.w3.org/Graphics/SVG/1.1/DTD/svg11.dtd">
<!-- Generated by graphviz version 2.44.0 (0)
 -->
<!-- Title: G Pages: 1 -->
<svg width="1075pt" height="648pt"
 viewBox="0.00 0.00 1075.16 648.00" xmlns="http://www.w3.org/2000/svg" xmlns:xlink="http://www.w3.org/1999/xlink">
<g id="graph0" class="graph" transform="scale(0.91 0.91) rotate(0) translate(4 710)">
<title>G</title>
<polygon fill="white" stroke="transparent" points="-4,4 -4,-710 1180.67,-710 1180.67,4 -4,4"/>
<g id="clust1" class="cluster">
<title>cluster_0</title>
<polygon fill="#000000" fill-opacity="0.058824" stroke="#000000" stroke-opacity="0.058824" points="10.72,-8 10.72,-590 1165.95,-590 1165.95,-8 10.72,-8"/>
<text text-anchor="middle" x="588.33" y="-574.8" font-family="Times-Roman" font-size="14.00">GHCup</text>
</g>
<g id="clust2" class="cluster">
<title>cluster_1</title>
<polygon fill="#000000" fill-opacity="0.058824" stroke="#000000" stroke-opacity="0.058824" points="254.63,-326 254.63,-484 603.08,-484 603.08,-326 254.63,-326"/>
<text text-anchor="middle" x="428.85" y="-468.8" font-family="Times-Roman" font-size="14.00">Download</text>
</g>
<g id="clust3" class="cluster">
<title>cluster_2</title>
<polygon fill="#000000" fill-opacity="0.058824" stroke="#000000" stroke-opacity="0.058824" points="363.19,-171 363.19,-318 605.76,-318 605.76,-171 363.19,-171"/>
<text text-anchor="middle" x="484.47" y="-302.8" font-family="Times-Roman" font-size="14.00">Types</text>
</g>
<g id="clust4" class="cluster">
<title>cluster_3</title>
<polygon fill="#000000" fill-opacity="0.058824" stroke="#000000" stroke-opacity="0.058824" points="758.53,-16 758.53,-515 1155.22,-515 1155.22,-16 758.53,-16"/>
<text text-anchor="middle" x="956.88" y="-499.8" font-family="Times-Roman" font-size="14.00">Utils</text>
</g>
<g id="clust5" class="cluster">
<title>cluster_4</title>
<polygon fill="#000000" fill-opacity="0.058824" stroke="#000000" stroke-opacity="0.058824" points="857.71,-243 857.71,-401 1015.85,-401 1015.85,-243 857.71,-243"/>
<text text-anchor="middle" x="936.78" y="-385.8" font-family="Times-Roman" font-size="14.00">File</text>
</g>
<g id="clust6" class="cluster">
<title>cluster_5</title>
<polygon fill="#000000" fill-opacity="0.058824" stroke="#000000" stroke-opacity="0.058824" points="781.32,-24 781.32,-99 875.13,-99 875.13,-24 781.32,-24"/>
<text text-anchor="middle" x="828.22" y="-83.8" font-family="Times-Roman" font-size="14.00">String</text>
</g>
<g id="clust7" class="cluster">
<title>cluster_6</title>
<polygon fill="#000000" fill-opacity="0.058824" stroke="#000000" stroke-opacity="0.058824" points="954.2,-409 954.2,-484 1048.01,-484 1048.01,-409 954.2,-409"/>
<text text-anchor="middle" x="1001.1" y="-468.8" font-family="Times-Roman" font-size="14.00">Version</text>
</g>
<!-- u1 -->
<g id="node1" class="node">
<title>u1</title>
<ellipse fill="#ffffbb" stroke="black" stroke-width="2" cx="518.39" cy="-435" rx="55.49" ry="18"/>
<text text-anchor="middle" x="518.39" y="-431.3" font-family="Times-Roman" font-size="14.00">Download</text>
</g>
<!-- u12 -->
<g id="node7" class="node">
<title>u12</title>
<ellipse fill="#bbffff" stroke="black" stroke-width="2" cx="922.39" cy="-352" rx="27" ry="18"/>
<text text-anchor="middle" x="922.39" y="-348.3" font-family="Times-Roman" font-size="14.00">File</text>
</g>
<!-- u1&#45;&gt;u12 -->
<g id="edge15" class="edge">
<title>u1&#45;&gt;u12</title>
<path fill="none" stroke="black" d="M546.79,-419.43C556.27,-415.25 567.06,-411.24 577.39,-409 594.44,-405.31 876.17,-409.54 891.39,-401 900.16,-396.08 906.84,-387.53 911.72,-379"/>
<polygon fill="black" stroke="black" points="914.92,-380.43 916.31,-369.92 908.67,-377.26 914.92,-380.43"/>
</g>
<!-- u11 -->
<g id="node15" class="node">
<title>u11</title>
<ellipse fill="#bbffff" stroke="black" stroke-width="0" cx="808.39" cy="-352" rx="28.7" ry="18"/>
<text text-anchor="middle" x="808.39" y="-348.3" font-family="Times-Roman" font-size="14.00">Dirs</text>
</g>
<!-- u1&#45;&gt;u11 -->
<g id="edge14" class="edge">
<title>u1&#45;&gt;u11</title>
<path fill="none" stroke="black" d="M548.95,-419.93C557.99,-416.08 567.99,-412.11 577.39,-409 586.69,-405.92 709.34,-376.59 772.03,-361.65"/>
<polygon fill="black" stroke="black" points="772.99,-365.02 781.91,-359.3 771.37,-358.21 772.99,-365.02"/>
</g>
<!-- u13 -->
<g id="node18" class="node">
<title>u13</title>
<ellipse fill="#ffffbb" stroke="black" stroke-width="0" cx="146.39" cy="-269" rx="44.39" ry="18"/>
<text text-anchor="middle" x="146.39" y="-265.3" font-family="Times-Roman" font-size="14.00">Version</text>
</g>
<!-- u1&#45;&gt;u13 -->
<g id="edge13" class="edge">
<title>u1&#45;&gt;u13</title>
<path fill="none" stroke="black" d="M477.97,-422.58C457.84,-417.42 433.02,-411.85 410.39,-409 400.85,-407.8 71.11,-407.88 64.39,-401 41.09,-377.16 48.83,-355.48 64.39,-326 73.49,-308.76 90.55,-295.83 106.76,-286.76"/>
<polygon fill="black" stroke="black" points="108.39,-289.86 115.62,-282.11 105.14,-283.66 108.39,-289.86"/>
</g>
<!-- u17 -->
<g id="node2" class="node">
<title>u17</title>
<ellipse fill="#bbbbff" stroke="black" stroke-width="0" cx="445.39" cy="-352" rx="30.59" ry="18"/>
<text text-anchor="middle" x="445.39" y="-348.3" font-family="Times-Roman" font-size="14.00">Utils</text>
</g>
<!-- u5 -->
<g id="node6" class="node">
<title>u5</title>
<ellipse fill="#ffbbbb" stroke="black" stroke-width="0" cx="549.39" cy="-269" rx="33.6" ry="18"/>
<text text-anchor="middle" x="549.39" y="-265.3" font-family="Times-Roman" font-size="14.00">JSON</text>
</g>
<!-- u17&#45;&gt;u5 -->
<g id="edge16" class="edge">
<title>u17&#45;&gt;u5</title>
<path fill="none" stroke="black" d="M463.03,-337.26C479.49,-324.44 504.26,-305.15 523.05,-290.51"/>
<polygon fill="black" stroke="black" points="525.22,-293.26 530.96,-284.35 520.92,-287.74 525.22,-293.26"/>
</g>
<!-- u19 -->
<g id="node3" class="node">
<title>u19</title>
<ellipse fill="#bbbbff" stroke="black" stroke-width="0" cx="343.39" cy="-435" rx="57.69" ry="18"/>
<text text-anchor="middle" x="343.39" y="-431.3" font-family="Times-Roman" font-size="14.00">IOStreams</text>
</g>
<!-- u19&#45;&gt;u17 -->
<g id="edge17" class="edge">
<title>u19&#45;&gt;u17</title>
<path fill="none" stroke="black" d="M378.72,-420.5C389.55,-415.38 401.06,-408.84 410.39,-401 418.16,-394.47 425.12,-385.87 430.76,-377.75"/>
<polygon fill="black" stroke="black" points="433.77,-379.54 436.33,-369.25 427.92,-375.7 433.77,-379.54"/>
</g>
<!-- u3 -->
<g id="node4" class="node">
<title>u3</title>
<ellipse fill="#ffffbb" stroke="black" stroke-width="2" cx="534.39" cy="-197" rx="36.29" ry="18"/>
<text text-anchor="middle" x="534.39" y="-193.3" font-family="Times-Roman" font-size="14.00">Types</text>
</g>
<!-- u4 -->
<g id="node5" class="node">
<title>u4</title>
<ellipse fill="#ffbbbb" stroke="black" stroke-width="0" cx="427.39" cy="-269" rx="39.79" ry="18"/>
<text text-anchor="middle" x="427.39" y="-265.3" font-family="Times-Roman" font-size="14.00">Optics</text>
</g>
<!-- u4&#45;&gt;u3 -->
<g id="edge18" class="edge">
<title>u4&#45;&gt;u3</title>
<path fill="none" stroke="black" d="M449.04,-253.83C464.95,-243.42 486.78,-229.15 504.37,-217.64"/>
<polygon fill="black" stroke="black" points="506.68,-220.31 513.13,-211.91 502.85,-214.45 506.68,-220.31"/>
</g>
<!-- u6 -->
<g id="node12" class="node">
<title>u6</title>
<ellipse fill="#bbffff" stroke="black" stroke-width="0" cx="855.39" cy="-435" rx="64.19" ry="18"/>
<text text-anchor="middle" x="855.39" y="-431.3" font-family="Times-Roman" font-size="14.00">MegaParsec</text>
</g>
<!-- u5&#45;&gt;u6 -->
<g id="edge19" class="edge">
<title>u5&#45;&gt;u6</title>
<path fill="none" stroke="black" d="M566.7,-284.68C579.52,-295.01 597.75,-308.62 615.39,-318 624.58,-322.89 630.09,-318.59 637.39,-326 662.15,-351.13 635.32,-379.63 663.39,-401 674.37,-409.36 773.88,-406.14 787.39,-409 795.7,-410.76 804.37,-413.33 812.61,-416.16"/>
<polygon fill="black" stroke="black" points="811.46,-419.47 822.06,-419.57 813.84,-412.88 811.46,-419.47"/>
</g>
<!-- u7 -->
<g id="node13" class="node">
<title>u7</title>
<ellipse fill="#bbffff" stroke="black" stroke-width="0" cx="828.39" cy="-197" rx="44.39" ry="18"/>
<text text-anchor="middle" x="828.39" y="-193.3" font-family="Times-Roman" font-size="14.00">Prelude</text>
</g>
<!-- u5&#45;&gt;u7 -->
<g id="edge20" class="edge">
<title>u5&#45;&gt;u7</title>
<path fill="none" stroke="black" d="M567.9,-253.71C573.85,-249.71 580.65,-245.72 587.39,-243 648.94,-218.19 724.91,-206.91 774.9,-201.88"/>
<polygon fill="black" stroke="black" points="775.54,-205.33 785.16,-200.9 774.87,-198.36 775.54,-205.33"/>
</g>
<!-- u9 -->
<g id="node8" class="node">
<title>u9</title>
<ellipse fill="#ffbbff" stroke="black" stroke-width="0" cx="936.39" cy="-269" rx="51.19" ry="18"/>
<text text-anchor="middle" x="936.39" y="-265.3" font-family="Times-Roman" font-size="14.00">Common</text>
</g>
<!-- u12&#45;&gt;u9 -->
<g id="edge30" class="edge">
<title>u12&#45;&gt;u9</title>
<path fill="none" stroke="black" d="M925.36,-333.82C927.2,-323.19 929.6,-309.31 931.69,-297.2"/>
<polygon fill="black" stroke="black" points="935.17,-297.6 933.42,-287.15 928.27,-296.41 935.17,-297.6"/>
</g>
<!-- u9&#45;&gt;u7 -->
<g id="edge31" class="edge">
<title>u9&#45;&gt;u7</title>
<path fill="none" stroke="black" d="M912.96,-252.81C897.32,-242.68 876.58,-229.24 859.56,-218.2"/>
<polygon fill="black" stroke="black" points="861.33,-215.18 851.04,-212.68 857.53,-221.06 861.33,-215.18"/>
</g>
<!-- u10 -->
<g id="node9" class="node">
<title>u10</title>
<ellipse fill="#77ff77" stroke="black" stroke-width="0" cx="828.39" cy="-50" rx="27" ry="18"/>
<text text-anchor="middle" x="828.39" y="-46.3" font-family="Times-Roman" font-size="14.00">QQ</text>
</g>
<!-- u16 -->
<g id="node10" class="node">
<title>u16</title>
<ellipse fill="#ffff77" stroke="black" stroke-width="0" cx="1001.39" cy="-435" rx="27" ry="18"/>
<text text-anchor="middle" x="1001.39" y="-431.3" font-family="Times-Roman" font-size="14.00">QQ</text>
</g>
<!-- u15 -->
<g id="node11" class="node">
<title>u15</title>
<ellipse fill="#ffffbb" stroke="black" stroke-width="2" cx="1103.39" cy="-435" rx="30.59" ry="18"/>
<text text-anchor="middle" x="1103.39" y="-431.3" font-family="Times-Roman" font-size="14.00">Utils</text>
</g>
<!-- u15&#45;&gt;u12 -->
<g id="edge22" class="edge">
<title>u15&#45;&gt;u12</title>
<path fill="none" stroke="black" d="M1080.91,-422.68C1072.07,-418.31 1061.8,-413.33 1052.39,-409 1019.33,-393.79 981.02,-377.44 954.59,-366.35"/>
<polygon fill="black" stroke="black" points="955.66,-363.01 945.08,-362.38 952.96,-369.47 955.66,-363.01"/>
</g>
<!-- u15&#45;&gt;u11 -->
<g id="edge21" class="edge">
<title>u15&#45;&gt;u11</title>
<path fill="none" stroke="black" d="M1082.81,-421.48C1073.8,-416.65 1062.9,-411.66 1052.39,-409 1009.49,-398.14 893.64,-419.41 853.39,-401 842.1,-395.84 832.28,-386.4 824.72,-377.25"/>
<polygon fill="black" stroke="black" points="827.3,-374.87 818.44,-369.07 821.75,-379.13 827.3,-374.87"/>
</g>
<!-- u6&#45;&gt;u3 -->
<g id="edge23" class="edge">
<title>u6&#45;&gt;u3</title>
<path fill="none" stroke="black" d="M817.86,-420.3C799.34,-413.36 779.12,-405.48 770.39,-401 716.1,-373.14 711.12,-350.84 655.39,-326 642.79,-320.38 635.87,-326.98 625.39,-318 597.74,-294.3 614.8,-271.71 592.39,-243 584.81,-233.29 574.68,-224.49 565.01,-217.31"/>
<polygon fill="black" stroke="black" points="566.89,-214.35 556.71,-211.43 562.85,-220.06 566.89,-214.35"/>
</g>
<!-- u8 -->
<g id="node14" class="node">
<title>u8</title>
<ellipse fill="#bbffff" stroke="black" stroke-width="0" cx="828.39" cy="-125" rx="42.49" ry="18"/>
<text text-anchor="middle" x="828.39" y="-121.3" font-family="Times-Roman" font-size="14.00">Logger</text>
</g>
<!-- u7&#45;&gt;u8 -->
<g id="edge25" class="edge">
<title>u7&#45;&gt;u8</title>
<path fill="none" stroke="black" stroke-dasharray="5,2" d="M828.39,-178.7C828.39,-170.98 828.39,-161.71 828.39,-153.11"/>
<polygon fill="black" stroke="black" points="831.89,-153.1 828.39,-143.1 824.89,-153.1 831.89,-153.1"/>
</g>
<!-- u2 -->
<g id="node17" class="node">
<title>u2</title>
<ellipse fill="#ffffbb" stroke="black" stroke-width="0" cx="696.39" cy="-269" rx="37.89" ry="18"/>
<text text-anchor="middle" x="696.39" y="-265.3" font-family="Times-Roman" font-size="14.00">Errors</text>
</g>
<!-- u7&#45;&gt;u2 -->
<g id="edge24" class="edge">
<title>u7&#45;&gt;u2</title>
<path fill="none" stroke="black" d="M802.53,-211.71C781.65,-222.79 752.12,-238.45 729.51,-250.44"/>
<polygon fill="black" stroke="black" points="727.8,-247.38 720.6,-255.16 731.07,-253.57 727.8,-247.38"/>
</g>
<!-- u8&#45;&gt;u4 -->
<g id="edge26" class="edge">
<title>u8&#45;&gt;u4</title>
<path fill="none" stroke="black" d="M786.3,-127.22C706.73,-130.23 537.84,-140.15 489.39,-171 463.54,-187.46 446.42,-218.99 436.84,-241.64"/>
<polygon fill="black" stroke="black" points="433.54,-240.45 433.08,-251.04 440.04,-243.06 433.54,-240.45"/>
</g>
<!-- u8&#45;&gt;u9 -->
<g id="edge27" class="edge">
<title>u8&#45;&gt;u9</title>
<path fill="none" stroke="black" stroke-dasharray="5,2" d="M849.03,-140.76C859.52,-148.9 872,-159.65 881.39,-171 899.5,-192.89 914.92,-221.56 924.79,-242.04"/>
<polygon fill="black" stroke="black" points="921.62,-243.54 929.04,-251.1 927.96,-240.56 921.62,-243.54"/>
</g>
<!-- u8&#45;&gt;u10 -->
<g id="edge28" class="edge">
<title>u8&#45;&gt;u10</title>
<path fill="none" stroke="black" d="M828.39,-106.7C828.39,-98.25 828.39,-87.87 828.39,-78.37"/>
<polygon fill="black" stroke="black" points="831.89,-78.18 828.39,-68.18 824.89,-78.18 831.89,-78.18"/>
</g>
<!-- u11&#45;&gt;u5 -->
<g id="edge29" class="edge">
<title>u11&#45;&gt;u5</title>
<path fill="none" stroke="black" d="M781.07,-346.57C749.06,-341.43 694.42,-332.79 647.39,-326 620.76,-322.16 610.78,-331.29 587.39,-318 577.83,-312.56 569.78,-303.68 563.6,-295.02"/>
<polygon fill="black" stroke="black" points="566.46,-293 558.04,-286.57 560.61,-296.85 566.46,-293"/>
</g>
<!-- u0 -->
<g id="node16" class="node">
<title>u0</title>
<ellipse fill="#bbffbb" stroke="black" stroke-width="2" cx="840.39" cy="-541" rx="42.49" ry="18"/>
<text text-anchor="middle" x="840.39" y="-537.3" font-family="Times-Roman" font-size="14.00">GHCup</text>
</g>
<!-- u0&#45;&gt;u1 -->
<g id="edge4" class="edge">
<title>u0&#45;&gt;u1</title>
<path fill="none" stroke="black" d="M798.15,-540.08C733.62,-539.53 614.12,-535.65 577.39,-515 556.17,-503.07 540.32,-480.02 530.42,-461.88"/>
<polygon fill="black" stroke="black" points="533.49,-460.2 525.79,-452.93 527.27,-463.42 533.49,-460.2"/>
</g>
<!-- u0&#45;&gt;u16 -->
<g id="edge6" class="edge">
<title>u0&#45;&gt;u16</title>
<path fill="none" stroke="black" d="M881.32,-536.43C914.21,-532.8 957.04,-526.09 970.39,-515 985.87,-502.13 993.66,-480.49 997.55,-463.11"/>
<polygon fill="black" stroke="black" points="1001.06,-463.44 999.51,-452.96 994.18,-462.12 1001.06,-463.44"/>
</g>
<!-- u0&#45;&gt;u15 -->
<g id="edge5" class="edge">
<title>u0&#45;&gt;u15</title>
<path fill="none" stroke="black" d="M882.83,-539.21C936.42,-537.51 1024.95,-532.11 1052.39,-515 1071.91,-502.83 1085.39,-480.12 1093.57,-462.17"/>
<polygon fill="black" stroke="black" points="1096.87,-463.35 1097.57,-452.78 1090.43,-460.6 1096.87,-463.35"/>
</g>
<!-- u14 -->
<g id="node19" class="node">
<title>u14</title>
<ellipse fill="#ffffbb" stroke="black" stroke-width="0" cx="680.39" cy="-435" rx="48.19" ry="18"/>
<text text-anchor="middle" x="680.39" y="-431.3" font-family="Times-Roman" font-size="14.00">Platform</text>
</g>
<!-- u0&#45;&gt;u14 -->
<g id="edge3" class="edge">
<title>u0&#45;&gt;u14</title>
<path fill="none" stroke="black" d="M801.74,-533.4C786.24,-529.61 768.7,-523.78 754.39,-515 731.68,-501.06 711.42,-478.33 697.87,-460.82"/>
<polygon fill="black" stroke="black" points="700.58,-458.59 691.78,-452.7 694.98,-462.8 700.58,-458.59"/>
</g>
<!-- u2&#45;&gt;u3 -->
<g id="edge7" class="edge">
<title>u2&#45;&gt;u3</title>
<path fill="none" stroke="black" d="M669.27,-256.28C642.05,-244.52 599.95,-226.33 570.04,-213.4"/>
<polygon fill="black" stroke="black" points="571.35,-210.16 560.79,-209.41 568.58,-216.59 571.35,-210.16"/>
</g>
<!-- u13&#45;&gt;u3 -->
<g id="edge8" class="edge">
<title>u13&#45;&gt;u3</title>
<path fill="none" stroke="black" d="M186.09,-260.84C259.14,-247.66 414.32,-219.66 490.43,-205.93"/>
<polygon fill="black" stroke="black" points="491.41,-209.31 500.63,-204.09 490.17,-202.42 491.41,-209.31"/>
</g>
<!-- u14&#45;&gt;u5 -->
<g id="edge9" class="edge">
<title>u14&#45;&gt;u5</title>
<path fill="none" stroke="black" d="M656.5,-419.22C649.64,-414.1 642.62,-407.9 637.39,-401 615.71,-372.38 627.41,-355.8 607.39,-326 598.66,-313.01 586.48,-300.68 575.54,-290.91"/>
<polygon fill="black" stroke="black" points="577.72,-288.16 567.86,-284.28 573.14,-293.46 577.72,-288.16"/>
</g>
<!-- u14&#45;&gt;u12 -->
<g id="edge10" class="edge">
<title>u14&#45;&gt;u12</title>
<path fill="none" stroke="black" d="M711.94,-421.27C724.88,-416.59 740.15,-411.77 754.39,-409 784.33,-403.18 865.04,-416.36 891.39,-401 900.07,-395.94 906.74,-387.36 911.63,-378.84"/>
<polygon fill="black" stroke="black" points="914.82,-380.3 916.24,-369.8 908.58,-377.12 914.82,-380.3"/>
</g>
<!-- u18 -->
<g id="node20" class="node">
<title>u18</title>
<ellipse fill="#ffffbb" stroke="black" stroke-width="0" cx="146.39" cy="-352" rx="73.39" ry="18"/>
<text text-anchor="middle" x="146.39" y="-348.3" font-family="Times-Roman" font-size="14.00">Requirements</text>
</g>
<!-- u18&#45;&gt;u5 -->
<g id="edge12" class="edge">
<title>u18&#45;&gt;u5</title>
<path fill="none" stroke="black" d="M192.35,-337.85C210.3,-333.27 231.16,-328.62 250.39,-326 300.18,-319.2 428.51,-333.26 476.39,-318 493.93,-312.41 511.26,-301.32 524.62,-291.22"/>
<polygon fill="black" stroke="black" points="527.1,-293.72 532.79,-284.78 522.77,-288.22 527.1,-293.72"/>
</g>
<!-- u18&#45;&gt;u13 -->
<g id="edge11" class="edge">
<title>u18&#45;&gt;u13</title>
<path fill="none" stroke="black" d="M146.39,-333.82C146.39,-323.19 146.39,-309.31 146.39,-297.2"/>
<polygon fill="black" stroke="black" points="149.89,-297.15 146.39,-287.15 142.89,-297.15 149.89,-297.15"/>
</g>
<!-- u20 -->
<g id="node21" class="node">
<title>u20</title>
<ellipse fill="#bbffbb" stroke="black" stroke-width="0" cx="840.39" cy="-688" rx="32.49" ry="18"/>
<text text-anchor="middle" x="840.39" y="-684.3" font-family="Times-Roman" font-size="14.00">Main</text>
</g>
<!-- u21 -->
<g id="node22" class="node">
<title>u21</title>
<ellipse fill="#bbffbb" stroke="black" stroke-width="0" cx="840.39" cy="-616" rx="46.29" ry="18"/>
<text text-anchor="middle" x="840.39" y="-612.3" font-family="Times-Roman" font-size="14.00">Validate</text>
</g>
<!-- u20&#45;&gt;u21 -->
<g id="edge1" class="edge">
<title>u20&#45;&gt;u21</title>
<path fill="none" stroke="black" d="M840.39,-669.7C840.39,-661.98 840.39,-652.71 840.39,-644.11"/>
<polygon fill="black" stroke="black" points="843.89,-644.1 840.39,-634.1 836.89,-644.1 843.89,-644.1"/>
</g>
<!-- u21&#45;&gt;u0 -->
<g id="edge2" class="edge">
<title>u21&#45;&gt;u0</title>
<path fill="none" stroke="black" d="M840.39,-597.7C840.39,-589.25 840.39,-578.87 840.39,-569.37"/>
<polygon fill="black" stroke="black" points="843.89,-569.18 840.39,-559.18 836.89,-569.18 843.89,-569.18"/>
</g>
</g>
</svg>
