<?xml version="1.0" encoding="UTF-8" standalone="no"?>
<!DOCTYPE svg PUBLIC "-//W3C//DTD SVG 1.1//EN"
 "http://www.w3.org/Graphics/SVG/1.1/DTD/svg11.dtd">
<!-- Generated by graphviz version 2.44.0 (0)
 -->
<!-- Title: G Pages: 1 -->
<svg width="1076pt" height="648pt"
 viewBox="0.00 0.00 1076.37 648.00" xmlns="http://www.w3.org/2000/svg" xmlns:xlink="http://www.w3.org/1999/xlink">
<g id="graph0" class="graph" transform="scale(0.68 0.68) rotate(0) translate(4 949)">
<title>G</title>
<polygon fill="white" stroke="transparent" points="-4,4 -4,-949 1579,-949 1579,4 -4,4"/>
<g id="clust1" class="cluster">
<title>cluster_0</title>
<polygon fill="#000000" fill-opacity="0.058824" stroke="#000000" stroke-opacity="0.058824" points="8,-8.66 8,-897.37 1567,-897.37 1567,-8.66 8,-8.66"/>
<text text-anchor="middle" x="787.5" y="-882.17" font-family="Times-Roman" font-size="14.00">GHCup</text>
</g>
<g id="clust2" class="cluster">
<title>cluster_1</title>
<polygon fill="#000000" fill-opacity="0.058824" stroke="#000000" stroke-opacity="0.058824" points="1102,-352.89 1102,-548.81 1362,-548.81 1362,-352.89 1102,-352.89"/>
<text text-anchor="middle" x="1232" y="-533.61" font-family="Times-Roman" font-size="14.00">Download</text>
</g>
<g id="clust3" class="cluster">
<title>cluster_2</title>
<polygon fill="#000000" fill-opacity="0.058824" stroke="#000000" stroke-opacity="0.058824" points="16,-626.75 16,-863.81 1559,-863.81 1559,-626.75 16,-626.75"/>
<text text-anchor="middle" x="787.5" y="-848.61" font-family="Times-Roman" font-size="14.00">OptParse</text>
</g>
<g id="clust4" class="cluster">
<title>cluster_3</title>
<polygon fill="#000000" fill-opacity="0.058824" stroke="#000000" stroke-opacity="0.058824" points="1196,-185.1 1196,-344.23 1377,-344.23 1377,-185.1 1196,-185.1"/>
<text text-anchor="middle" x="1286.5" y="-329.03" font-family="Times-Roman" font-size="14.00">Types</text>
</g>
<g id="clust5" class="cluster">
<title>cluster_4</title>
<polygon fill="#000000" fill-opacity="0.058824" stroke="#000000" stroke-opacity="0.058824" points="586,-17.32 586,-467.63 1082,-467.63 1082,-17.32 586,-17.32"/>
<text text-anchor="middle" x="834" y="-452.43" font-family="Times-Roman" font-size="14.00">Utils</text>
</g>
<g id="clust6" class="cluster">
<title>cluster_5</title>
<polygon fill="#000000" fill-opacity="0.058824" stroke="#000000" stroke-opacity="0.058824" points="744,-263.04 744,-434.07 862,-434.07 862,-263.04 744,-263.04"/>
<text text-anchor="middle" x="803" y="-418.87" font-family="Times-Roman" font-size="14.00">File</text>
</g>
<g id="clust7" class="cluster">
<title>cluster_6</title>
<polygon fill="#000000" fill-opacity="0.058824" stroke="#000000" stroke-opacity="0.058824" points="995,-25.98 995,-107.16 1065,-107.16 1065,-25.98 995,-25.98"/>
<text text-anchor="middle" x="1030" y="-91.96" font-family="Times-Roman" font-size="14.00">String</text>
</g>
<g id="clust8" class="cluster">
<title>cluster_7</title>
<polygon fill="#000000" fill-opacity="0.058824" stroke="#000000" stroke-opacity="0.058824" points="594,-352.89 594,-434.07 664,-434.07 664,-352.89 594,-352.89"/>
<text text-anchor="middle" x="629" y="-418.87" font-family="Times-Roman" font-size="14.00">Version</text>
</g>
<!-- u1 -->
<g id="node1" class="node">
<title>u1</title>
<ellipse fill="#ffffbb" stroke="black" stroke-width="2" cx="1165" cy="-495.66" rx="55.49" ry="18"/>
<text text-anchor="middle" x="1165" y="-491.96" font-family="Times-Roman" font-size="14.00">Download</text>
</g>
<!-- u12 -->
<g id="node24" class="node">
<title>u12</title>
<ellipse fill="#ffbbff" stroke="black" stroke-width="2" cx="825" cy="-380.66" rx="27" ry="18"/>
<text text-anchor="middle" x="825" y="-376.96" font-family="Times-Roman" font-size="14.00">File</text>
</g>
<!-- u1&#45;&gt;u12 -->
<g id="edge13" class="edge">
<title>u1&#45;&gt;u12</title>
<path fill="none" stroke="black" d="M1127.19,-482.48C1120.21,-480.6 1112.93,-478.88 1106,-477.66 1078.58,-472.83 878.46,-477.12 856,-460.66 839.51,-448.58 831.79,-426.38 828.17,-408.59"/>
<polygon fill="black" stroke="black" points="831.62,-407.99 826.49,-398.73 824.72,-409.17 831.62,-407.99"/>
</g>
<!-- u11 -->
<g id="node32" class="node">
<title>u11</title>
<ellipse fill="#ffbbff" stroke="black" stroke-width="0" cx="1045" cy="-380.66" rx="28.7" ry="18"/>
<text text-anchor="middle" x="1045" y="-376.96" font-family="Times-Roman" font-size="14.00">Dirs</text>
</g>
<!-- u1&#45;&gt;u11 -->
<g id="edge12" class="edge">
<title>u1&#45;&gt;u11</title>
<path fill="none" stroke="black" d="M1130.87,-481.48C1119.63,-476.1 1107.57,-469.13 1098,-460.66 1081.15,-445.74 1067.22,-424.32 1057.88,-407.55"/>
<polygon fill="black" stroke="black" points="1060.73,-405.46 1052.92,-398.3 1054.56,-408.76 1060.73,-405.46"/>
</g>
<!-- u13 -->
<g id="node35" class="node">
<title>u13</title>
<ellipse fill="#ffffbb" stroke="black" stroke-width="0" cx="1414" cy="-380.66" rx="44.39" ry="18"/>
<text text-anchor="middle" x="1414" y="-376.96" font-family="Times-Roman" font-size="14.00">Version</text>
</g>
<!-- u1&#45;&gt;u13 -->
<g id="edge11" class="edge">
<title>u1&#45;&gt;u13</title>
<path fill="none" stroke="black" d="M1205.09,-483.12C1212.97,-481.1 1221.21,-479.17 1229,-477.66 1259.12,-471.82 1340.24,-477.32 1366,-460.66 1384.87,-448.45 1397.46,-425.95 1405,-408.08"/>
<polygon fill="black" stroke="black" points="1408.27,-409.31 1408.67,-398.72 1401.76,-406.75 1408.27,-409.31"/>
</g>
<!-- u17 -->
<g id="node2" class="node">
<title>u17</title>
<ellipse fill="#bbbbff" stroke="black" stroke-width="0" cx="1267" cy="-380.66" rx="30.59" ry="18"/>
<text text-anchor="middle" x="1267" y="-376.96" font-family="Times-Roman" font-size="14.00">Utils</text>
</g>
<!-- u5 -->
<g id="node23" class="node">
<title>u5</title>
<ellipse fill="#bbffff" stroke="black" stroke-width="0" cx="1238" cy="-291.66" rx="33.6" ry="18"/>
<text text-anchor="middle" x="1238" y="-287.96" font-family="Times-Roman" font-size="14.00">JSON</text>
</g>
<!-- u17&#45;&gt;u5 -->
<g id="edge14" class="edge">
<title>u17&#45;&gt;u5</title>
<path fill="none" stroke="black" d="M1261.41,-362.89C1257.3,-350.57 1251.64,-333.58 1246.91,-319.4"/>
<polygon fill="black" stroke="black" points="1250.16,-318.06 1243.67,-309.68 1243.52,-320.27 1250.16,-318.06"/>
</g>
<!-- u19 -->
<g id="node3" class="node">
<title>u19</title>
<ellipse fill="#bbbbff" stroke="black" stroke-width="0" cx="1296" cy="-495.66" rx="57.69" ry="18"/>
<text text-anchor="middle" x="1296" y="-491.96" font-family="Times-Roman" font-size="14.00">IOStreams</text>
</g>
<!-- u19&#45;&gt;u17 -->
<g id="edge15" class="edge">
<title>u19&#45;&gt;u17</title>
<path fill="none" stroke="black" d="M1291.6,-477.5C1286.88,-459.14 1279.35,-429.78 1273.86,-408.39"/>
<polygon fill="black" stroke="black" points="1277.23,-407.43 1271.35,-398.61 1270.45,-409.17 1277.23,-407.43"/>
</g>
<!-- u21 -->
<g id="node4" class="node">
<title>u21</title>
<ellipse fill="#ffffbb" stroke="black" stroke-width="2" cx="742" cy="-810.66" rx="51.99" ry="18"/>
<text text-anchor="middle" x="742" y="-806.96" font-family="Times-Roman" font-size="14.00">OptParse</text>
</g>
<!-- u23 -->
<g id="node6" class="node">
<title>u23</title>
<ellipse fill="#ffbbbb" stroke="black" stroke-width="0" cx="846" cy="-732.66" rx="38.19" ry="18"/>
<text text-anchor="middle" x="846" y="-728.96" font-family="Times-Roman" font-size="14.00">Install</text>
</g>
<!-- u21&#45;&gt;u23 -->
<g id="edge16" class="edge">
<title>u21&#45;&gt;u23</title>
<path fill="none" stroke="black" d="M763.3,-794.1C778.98,-782.63 800.48,-766.92 817.63,-754.39"/>
<polygon fill="black" stroke="black" points="820.13,-756.9 826.14,-748.17 816,-751.25 820.13,-756.9"/>
</g>
<!-- u24 -->
<g id="node7" class="node">
<title>u24</title>
<ellipse fill="#ffbbbb" stroke="black" stroke-width="0" cx="929" cy="-732.66" rx="27" ry="18"/>
<text text-anchor="middle" x="929" y="-728.96" font-family="Times-Roman" font-size="14.00">Set</text>
</g>
<!-- u21&#45;&gt;u24 -->
<g id="edge17" class="edge">
<title>u21&#45;&gt;u24</title>
<path fill="none" stroke="black" d="M776.15,-797.08C806.94,-785.56 853.32,-767.76 893,-750.66 894.81,-749.88 896.66,-749.06 898.53,-748.23"/>
<polygon fill="black" stroke="black" points="900.16,-751.33 907.79,-743.97 897.24,-744.97 900.16,-751.33"/>
</g>
<!-- u25 -->
<g id="node8" class="node">
<title>u25</title>
<ellipse fill="#ffbbbb" stroke="black" stroke-width="0" cx="1197" cy="-732.66" rx="38.19" ry="18"/>
<text text-anchor="middle" x="1197" y="-728.96" font-family="Times-Roman" font-size="14.00">UnSet</text>
</g>
<!-- u21&#45;&gt;u25 -->
<g id="edge18" class="edge">
<title>u21&#45;&gt;u25</title>
<path fill="none" stroke="black" d="M792.1,-805.59C869.52,-798.59 1022.5,-781.91 1149,-750.66 1152.18,-749.88 1155.44,-748.96 1158.69,-747.97"/>
<polygon fill="black" stroke="black" points="1159.91,-751.26 1168.34,-744.84 1157.75,-744.6 1159.91,-751.26"/>
</g>
<!-- u26 -->
<g id="node9" class="node">
<title>u26</title>
<ellipse fill="#ffbbbb" stroke="black" stroke-width="0" cx="1001" cy="-732.66" rx="27" ry="18"/>
<text text-anchor="middle" x="1001" y="-728.96" font-family="Times-Roman" font-size="14.00">Rm</text>
</g>
<!-- u21&#45;&gt;u26 -->
<g id="edge19" class="edge">
<title>u21&#45;&gt;u26</title>
<path fill="none" stroke="black" d="M785.47,-800.63C830.94,-790.62 904.05,-772.9 965,-750.66 966.85,-749.98 968.74,-749.25 970.62,-748.47"/>
<polygon fill="black" stroke="black" points="972.2,-751.6 979.95,-744.38 969.39,-745.19 972.2,-751.6"/>
</g>
<!-- u27 -->
<g id="node10" class="node">
<title>u27</title>
<ellipse fill="#ffbbbb" stroke="black" stroke-width="0" cx="1093" cy="-732.66" rx="47.39" ry="18"/>
<text text-anchor="middle" x="1093" y="-728.96" font-family="Times-Roman" font-size="14.00">Compile</text>
</g>
<!-- u21&#45;&gt;u27 -->
<g id="edge20" class="edge">
<title>u21&#45;&gt;u27</title>
<path fill="none" stroke="black" d="M787.79,-801.93C846.05,-791.76 949.62,-772.61 1037,-750.66 1040.61,-749.75 1044.34,-748.76 1048.07,-747.72"/>
<polygon fill="black" stroke="black" points="1049.25,-751.02 1057.9,-744.89 1047.32,-744.29 1049.25,-751.02"/>
</g>
<!-- u28 -->
<g id="node11" class="node">
<title>u28</title>
<ellipse fill="#ffbbbb" stroke="black" stroke-width="0" cx="64" cy="-732.66" rx="40.09" ry="18"/>
<text text-anchor="middle" x="64" y="-728.96" font-family="Times-Roman" font-size="14.00">Config</text>
</g>
<!-- u21&#45;&gt;u28 -->
<g id="edge21" class="edge">
<title>u21&#45;&gt;u28</title>
<path fill="none" stroke="black" d="M689.99,-808.99C581.5,-806.67 323.62,-796.37 113,-750.66 109.64,-749.93 106.2,-749.04 102.77,-748.06"/>
<polygon fill="black" stroke="black" points="103.8,-744.71 93.21,-745.08 101.72,-751.4 103.8,-744.71"/>
</g>
<!-- u29 -->
<g id="node12" class="node">
<title>u29</title>
<ellipse fill="#ffbbbb" stroke="black" stroke-width="0" cx="415" cy="-732.66" rx="46.59" ry="18"/>
<text text-anchor="middle" x="415" y="-728.96" font-family="Times-Roman" font-size="14.00">Whereis</text>
</g>
<!-- u21&#45;&gt;u29 -->
<g id="edge22" class="edge">
<title>u21&#45;&gt;u29</title>
<path fill="none" stroke="black" d="M697.62,-801.14C643.73,-790.53 550.22,-771.27 471,-750.66 467.24,-749.68 463.35,-748.61 459.45,-747.51"/>
<polygon fill="black" stroke="black" points="460.41,-744.14 449.83,-744.71 458.45,-750.86 460.41,-744.14"/>
</g>
<!-- u30 -->
<g id="node13" class="node">
<title>u30</title>
<ellipse fill="#ffbbbb" stroke="black" stroke-width="0" cx="507" cy="-732.66" rx="27" ry="18"/>
<text text-anchor="middle" x="507" y="-728.96" font-family="Times-Roman" font-size="14.00">List</text>
</g>
<!-- u21&#45;&gt;u30 -->
<g id="edge23" class="edge">
<title>u21&#45;&gt;u30</title>
<path fill="none" stroke="black" d="M700.99,-799.47C660.33,-788.91 596.53,-771.1 543,-750.66 541.16,-749.96 539.28,-749.2 537.4,-748.41"/>
<polygon fill="black" stroke="black" points="538.65,-745.13 528.09,-744.28 535.81,-751.53 538.65,-745.13"/>
</g>
<!-- u31 -->
<g id="node14" class="node">
<title>u31</title>
<ellipse fill="#ffbbbb" stroke="black" stroke-width="0" cx="1303" cy="-732.66" rx="50.09" ry="18"/>
<text text-anchor="middle" x="1303" y="-728.96" font-family="Times-Roman" font-size="14.00">Upgrade</text>
</g>
<!-- u21&#45;&gt;u31 -->
<g id="edge24" class="edge">
<title>u21&#45;&gt;u31</title>
<path fill="none" stroke="black" d="M792.66,-806.46C883.72,-800.09 1080.77,-783.54 1244,-750.66 1248.17,-749.82 1252.48,-748.83 1256.78,-747.75"/>
<polygon fill="black" stroke="black" points="1257.95,-751.06 1266.72,-745.12 1256.16,-744.29 1257.95,-751.06"/>
</g>
<!-- u32 -->
<g id="node15" class="node">
<title>u32</title>
<ellipse fill="#ffbbbb" stroke="black" stroke-width="0" cx="614" cy="-732.66" rx="61.99" ry="18"/>
<text text-anchor="middle" x="614" y="-728.96" font-family="Times-Roman" font-size="14.00">ChangeLog</text>
</g>
<!-- u21&#45;&gt;u32 -->
<g id="edge25" class="edge">
<title>u21&#45;&gt;u32</title>
<path fill="none" stroke="black" d="M717.02,-794.83C697.66,-783.34 670.61,-767.27 649.09,-754.49"/>
<polygon fill="black" stroke="black" points="650.63,-751.34 640.24,-749.24 647.05,-757.36 650.63,-751.34"/>
</g>
<!-- u33 -->
<g id="node16" class="node">
<title>u33</title>
<ellipse fill="#ffbbbb" stroke="black" stroke-width="0" cx="742" cy="-732.66" rx="48.19" ry="18"/>
<text text-anchor="middle" x="742" y="-728.96" font-family="Times-Roman" font-size="14.00">Prefetch</text>
</g>
<!-- u21&#45;&gt;u33 -->
<g id="edge26" class="edge">
<title>u21&#45;&gt;u33</title>
<path fill="none" stroke="black" d="M742,-792.41C742,-783.18 742,-771.59 742,-761.15"/>
<polygon fill="black" stroke="black" points="745.5,-760.84 742,-750.84 738.5,-760.84 745.5,-760.84"/>
</g>
<!-- u34 -->
<g id="node17" class="node">
<title>u34</title>
<ellipse fill="#ffbbbb" stroke="black" stroke-width="0" cx="235" cy="-732.66" rx="27" ry="18"/>
<text text-anchor="middle" x="235" y="-728.96" font-family="Times-Roman" font-size="14.00">GC</text>
</g>
<!-- u21&#45;&gt;u34 -->
<g id="edge27" class="edge">
<title>u21&#45;&gt;u34</title>
<path fill="none" stroke="black" d="M690.05,-808.49C602.09,-805.33 418.98,-793.68 271,-750.66 269.06,-750.1 267.09,-749.44 265.13,-748.72"/>
<polygon fill="black" stroke="black" points="266.08,-745.32 255.5,-744.7 263.39,-751.78 266.08,-745.32"/>
</g>
<!-- u35 -->
<g id="node18" class="node">
<title>u35</title>
<ellipse fill="#ffbbbb" stroke="black" stroke-width="0" cx="315" cy="-732.66" rx="35.19" ry="18"/>
<text text-anchor="middle" x="315" y="-728.96" font-family="Times-Roman" font-size="14.00">DInfo</text>
</g>
<!-- u21&#45;&gt;u35 -->
<g id="edge28" class="edge">
<title>u21&#45;&gt;u35</title>
<path fill="none" stroke="black" d="M692.02,-805.43C618.22,-798.41 476.17,-781.93 359,-750.66 356.35,-749.95 353.63,-749.14 350.92,-748.26"/>
<polygon fill="black" stroke="black" points="351.81,-744.86 341.22,-744.85 349.49,-751.47 351.81,-744.86"/>
</g>
<!-- u36 -->
<g id="node19" class="node">
<title>u36</title>
<ellipse fill="#ffbbbb" stroke="black" stroke-width="0" cx="1461" cy="-732.66" rx="90.18" ry="18"/>
<text text-anchor="middle" x="1461" y="-728.96" font-family="Times-Roman" font-size="14.00">ToolRequirements</text>
</g>
<!-- u21&#45;&gt;u36 -->
<g id="edge29" class="edge">
<title>u21&#45;&gt;u36</title>
<path fill="none" stroke="black" d="M792.37,-806.16C898.17,-798.52 1151.13,-778.76 1362,-750.66 1370.05,-749.59 1378.45,-748.34 1386.8,-747.02"/>
<polygon fill="black" stroke="black" points="1387.62,-750.44 1396.94,-745.38 1386.51,-743.53 1387.62,-750.44"/>
</g>
<!-- u37 -->
<g id="node20" class="node">
<title>u37</title>
<ellipse fill="#ffbbbb" stroke="black" stroke-width="0" cx="156" cy="-732.66" rx="33.6" ry="18"/>
<text text-anchor="middle" x="156" y="-728.96" font-family="Times-Roman" font-size="14.00">Nuke</text>
</g>
<!-- u21&#45;&gt;u37 -->
<g id="edge30" class="edge">
<title>u21&#45;&gt;u37</title>
<path fill="none" stroke="black" d="M690.3,-808.63C592.81,-805.69 375.74,-794.35 199,-750.66 196.22,-749.97 193.39,-749.15 190.56,-748.24"/>
<polygon fill="black" stroke="black" points="191.69,-744.93 181.1,-744.88 189.35,-751.52 191.69,-744.93"/>
</g>
<!-- u22 -->
<g id="node5" class="node">
<title>u22</title>
<ellipse fill="#ffbbbb" stroke="black" stroke-width="0" cx="742" cy="-654.66" rx="51.19" ry="18"/>
<text text-anchor="middle" x="742" y="-650.96" font-family="Times-Roman" font-size="14.00">Common</text>
</g>
<!-- u0 -->
<g id="node33" class="node">
<title>u0</title>
<ellipse fill="#bbffbb" stroke="black" stroke-width="2" cx="705" cy="-576.66" rx="42.49" ry="18"/>
<text text-anchor="middle" x="705" y="-572.96" font-family="Times-Roman" font-size="14.00">GHCup</text>
</g>
<!-- u22&#45;&gt;u0 -->
<g id="edge31" class="edge">
<title>u22&#45;&gt;u0</title>
<path fill="none" stroke="black" d="M733.79,-636.79C729.05,-627.05 722.98,-614.59 717.64,-603.63"/>
<polygon fill="black" stroke="black" points="720.71,-601.94 713.19,-594.48 714.42,-605 720.71,-601.94"/>
</g>
<!-- u23&#45;&gt;u22 -->
<g id="edge32" class="edge">
<title>u23&#45;&gt;u22</title>
<path fill="none" stroke="black" d="M825.95,-717.01C810.53,-705.74 788.99,-690 771.59,-677.28"/>
<polygon fill="black" stroke="black" points="773.56,-674.39 763.42,-671.31 769.43,-680.04 773.56,-674.39"/>
</g>
<!-- u24&#45;&gt;u22 -->
<g id="edge33" class="edge">
<title>u24&#45;&gt;u22</title>
<path fill="none" stroke="black" d="M907.79,-721.35C902.96,-719.08 897.82,-716.74 893,-714.66 857.2,-699.23 815.93,-683.23 785.6,-671.79"/>
<polygon fill="black" stroke="black" points="786.75,-668.48 776.15,-668.24 784.29,-675.03 786.75,-668.48"/>
</g>
<!-- u25&#45;&gt;u0 -->
<g id="edge34" class="edge">
<title>u25&#45;&gt;u0</title>
<path fill="none" stroke="black" d="M1167.62,-721.04C1161.48,-718.88 1155.04,-716.66 1149,-714.66 1003.04,-666.32 828.31,-614.02 748.55,-590.45"/>
<polygon fill="black" stroke="black" points="749.43,-587.06 738.85,-587.59 747.45,-593.77 749.43,-587.06"/>
</g>
<!-- u26&#45;&gt;u22 -->
<g id="edge35" class="edge">
<title>u26&#45;&gt;u22</title>
<path fill="none" stroke="black" d="M979.97,-720.89C975.13,-718.64 969.95,-716.43 965,-714.66 892.52,-688.77 871.13,-693.36 797,-672.66 794.25,-671.89 791.42,-671.08 788.58,-670.25"/>
<polygon fill="black" stroke="black" points="789.48,-666.87 778.9,-667.37 787.48,-673.58 789.48,-666.87"/>
</g>
<!-- u27&#45;&gt;u22 -->
<g id="edge36" class="edge">
<title>u27&#45;&gt;u22</title>
<path fill="none" stroke="black" d="M1058.23,-720.39C1051.24,-718.33 1043.92,-716.31 1037,-714.66 931.66,-689.55 902.27,-698.03 797,-672.66 794.04,-671.95 791,-671.16 787.94,-670.33"/>
<polygon fill="black" stroke="black" points="788.79,-666.93 778.21,-667.56 786.87,-673.66 788.79,-666.93"/>
</g>
<!-- u15 -->
<g id="node28" class="node">
<title>u15</title>
<ellipse fill="#ffffbb" stroke="black" stroke-width="2" cx="705" cy="-380.66" rx="30.59" ry="18"/>
<text text-anchor="middle" x="705" y="-376.96" font-family="Times-Roman" font-size="14.00">Utils</text>
</g>
<!-- u28&#45;&gt;u15 -->
<g id="edge37" class="edge">
<title>u28&#45;&gt;u15</title>
<path fill="none" stroke="black" d="M71.46,-714.85C93.67,-667.18 164.47,-531.09 271,-477.66 310.47,-457.87 631.26,-485.14 668,-460.66 685.49,-449.01 694.89,-426.77 699.83,-408.86"/>
<polygon fill="black" stroke="black" points="703.29,-409.46 702.25,-398.92 696.49,-407.8 703.29,-409.46"/>
</g>
<!-- u29&#45;&gt;u22 -->
<g id="edge38" class="edge">
<title>u29&#45;&gt;u22</title>
<path fill="none" stroke="black" d="M449.8,-720.49C456.78,-718.42 464.1,-716.37 471,-714.66 565.92,-691.09 592.14,-696.47 687,-672.66 689.96,-671.92 692.99,-671.11 696.04,-670.26"/>
<polygon fill="black" stroke="black" points="697.13,-673.6 705.77,-667.46 695.19,-666.87 697.13,-673.6"/>
</g>
<!-- u30&#45;&gt;u22 -->
<g id="edge39" class="edge">
<title>u30&#45;&gt;u22</title>
<path fill="none" stroke="black" d="M528.08,-721.03C532.92,-718.78 538.09,-716.52 543,-714.66 605.33,-691.02 623.15,-691.84 687,-672.66 689.74,-671.84 692.55,-670.99 695.38,-670.12"/>
<polygon fill="black" stroke="black" points="696.5,-673.44 705.04,-667.17 694.46,-666.75 696.5,-673.44"/>
</g>
<!-- u31&#45;&gt;u0 -->
<g id="edge40" class="edge">
<title>u31&#45;&gt;u0</title>
<path fill="none" stroke="black" d="M1267.21,-719.95C1204.45,-699.67 1070.24,-657.41 955,-628.66 885.44,-611.3 803.91,-595.51 753.35,-586.24"/>
<polygon fill="black" stroke="black" points="753.82,-582.77 743.35,-584.42 752.56,-589.65 753.82,-582.77"/>
</g>
<!-- u32&#45;&gt;u22 -->
<g id="edge41" class="edge">
<title>u32&#45;&gt;u22</title>
<path fill="none" stroke="black" d="M639.9,-716.28C659.59,-704.59 686.84,-688.41 708.23,-675.71"/>
<polygon fill="black" stroke="black" points="710.2,-678.61 717.01,-670.5 706.62,-672.6 710.2,-678.61"/>
</g>
<!-- u33&#45;&gt;u22 -->
<g id="edge42" class="edge">
<title>u33&#45;&gt;u22</title>
<path fill="none" stroke="black" d="M742,-714.41C742,-705.18 742,-693.59 742,-683.15"/>
<polygon fill="black" stroke="black" points="745.5,-682.84 742,-672.84 738.5,-682.84 745.5,-682.84"/>
</g>
<!-- u34&#45;&gt;u0 -->
<g id="edge43" class="edge">
<title>u34&#45;&gt;u0</title>
<path fill="none" stroke="black" d="M256.18,-721.27C261.01,-719.01 266.15,-716.68 271,-714.66 321.21,-693.69 336.18,-694.54 386,-672.66 424.95,-655.55 430.98,-643.09 471,-628.66 532.58,-606.45 606.93,-592.27 655.04,-584.64"/>
<polygon fill="black" stroke="black" points="655.85,-588.06 665.19,-583.07 654.78,-581.14 655.85,-588.06"/>
</g>
<!-- u35&#45;&gt;u0 -->
<g id="edge44" class="edge">
<title>u35&#45;&gt;u0</title>
<path fill="none" stroke="black" d="M342.11,-720.95C409.78,-694.23 586.34,-624.51 665.55,-593.24"/>
<polygon fill="black" stroke="black" points="667.14,-596.37 675.16,-589.44 664.57,-589.86 667.14,-596.37"/>
</g>
<!-- u14 -->
<g id="node36" class="node">
<title>u14</title>
<ellipse fill="#ffffbb" stroke="black" stroke-width="0" cx="934" cy="-495.66" rx="48.19" ry="18"/>
<text text-anchor="middle" x="934" y="-491.96" font-family="Times-Roman" font-size="14.00">Platform</text>
</g>
<!-- u36&#45;&gt;u14 -->
<g id="edge45" class="edge">
<title>u36&#45;&gt;u14</title>
<path fill="none" stroke="black" d="M1426.01,-716.06C1331.57,-673.94 1071.92,-558.16 972.98,-514.04"/>
<polygon fill="black" stroke="black" points="974.21,-510.76 963.65,-509.88 971.36,-517.15 974.21,-510.76"/>
</g>
<!-- u18 -->
<g id="node37" class="node">
<title>u18</title>
<ellipse fill="#ffffbb" stroke="black" stroke-width="0" cx="1461" cy="-495.66" rx="73.39" ry="18"/>
<text text-anchor="middle" x="1461" y="-491.96" font-family="Times-Roman" font-size="14.00">Requirements</text>
</g>
<!-- u36&#45;&gt;u18 -->
<g id="edge46" class="edge">
<title>u36&#45;&gt;u18</title>
<path fill="none" stroke="black" d="M1461,-714.38C1461,-673.98 1461,-573.06 1461,-524.13"/>
<polygon fill="black" stroke="black" points="1464.5,-523.97 1461,-513.97 1457.5,-523.97 1464.5,-523.97"/>
</g>
<!-- u37&#45;&gt;u0 -->
<g id="edge47" class="edge">
<title>u37&#45;&gt;u0</title>
<path fill="none" stroke="black" d="M178.73,-719.04C219.16,-697.17 306.76,-652.29 386,-628.66 478.02,-601.22 589.65,-587.67 653.49,-581.71"/>
<polygon fill="black" stroke="black" points="654.05,-585.17 663.7,-580.78 653.42,-578.2 654.05,-585.17"/>
</g>
<!-- u3 -->
<g id="node21" class="node">
<title>u3</title>
<ellipse fill="#ffffbb" stroke="black" stroke-width="2" cx="1257" cy="-213.66" rx="36.29" ry="18"/>
<text text-anchor="middle" x="1257" y="-209.96" font-family="Times-Roman" font-size="14.00">Types</text>
</g>
<!-- u4 -->
<g id="node22" class="node">
<title>u4</title>
<ellipse fill="#bbffff" stroke="black" stroke-width="0" cx="1329" cy="-291.66" rx="39.79" ry="18"/>
<text text-anchor="middle" x="1329" y="-287.96" font-family="Times-Roman" font-size="14.00">Optics</text>
</g>
<!-- u4&#45;&gt;u3 -->
<g id="edge48" class="edge">
<title>u4&#45;&gt;u3</title>
<path fill="none" stroke="black" d="M1314.08,-274.91C1303.94,-264.21 1290.37,-249.88 1278.99,-237.88"/>
<polygon fill="black" stroke="black" points="1281.32,-235.24 1271.9,-230.39 1276.24,-240.05 1281.32,-235.24"/>
</g>
<!-- u6 -->
<g id="node29" class="node">
<title>u6</title>
<ellipse fill="#ffbbff" stroke="black" stroke-width="0" cx="934" cy="-380.66" rx="64.19" ry="18"/>
<text text-anchor="middle" x="934" y="-376.96" font-family="Times-Roman" font-size="14.00">MegaParsec</text>
</g>
<!-- u5&#45;&gt;u6 -->
<g id="edge49" class="edge">
<title>u5&#45;&gt;u6</title>
<path fill="none" stroke="black" d="M1226.6,-309.05C1217.94,-320.06 1204.99,-333.77 1190,-340.66 1152.94,-357.69 1046.95,-346.43 1007,-354.66 997.85,-356.55 988.26,-359.26 979.16,-362.21"/>
<polygon fill="black" stroke="black" points="977.86,-358.96 969.51,-365.48 980.11,-365.59 977.86,-358.96"/>
</g>
<!-- u7 -->
<g id="node30" class="node">
<title>u7</title>
<ellipse fill="#ffbbff" stroke="black" stroke-width="0" cx="1030" cy="-213.66" rx="44.39" ry="18"/>
<text text-anchor="middle" x="1030" y="-209.96" font-family="Times-Roman" font-size="14.00">Prelude</text>
</g>
<!-- u5&#45;&gt;u7 -->
<g id="edge50" class="edge">
<title>u5&#45;&gt;u7</title>
<path fill="none" stroke="black" d="M1218.91,-276.55C1213.05,-272.65 1206.44,-268.67 1200,-265.66 1160.61,-247.27 1113.01,-233.67 1078.21,-225.15"/>
<polygon fill="black" stroke="black" points="1078.83,-221.7 1068.29,-222.78 1077.21,-228.51 1078.83,-221.7"/>
</g>
<!-- u9 -->
<g id="node25" class="node">
<title>u9</title>
<ellipse fill="#77ff77" stroke="black" stroke-width="0" cx="803" cy="-291.66" rx="51.19" ry="18"/>
<text text-anchor="middle" x="803" y="-287.96" font-family="Times-Roman" font-size="14.00">Common</text>
</g>
<!-- u12&#45;&gt;u9 -->
<g id="edge59" class="edge">
<title>u12&#45;&gt;u9</title>
<path fill="none" stroke="black" d="M820.65,-362.47C817.58,-350.32 813.4,-333.77 809.87,-319.84"/>
<polygon fill="black" stroke="black" points="813.18,-318.65 807.34,-309.81 806.4,-320.37 813.18,-318.65"/>
</g>
<!-- u9&#45;&gt;u7 -->
<g id="edge60" class="edge">
<title>u9&#45;&gt;u7</title>
<path fill="none" stroke="black" d="M831.8,-276.66C840.15,-272.85 849.35,-268.89 858,-265.66 899.83,-250.04 948.74,-235.92 983.69,-226.52"/>
<polygon fill="black" stroke="black" points="984.85,-229.83 993.61,-223.88 983.05,-223.07 984.85,-229.83"/>
</g>
<!-- u10 -->
<g id="node26" class="node">
<title>u10</title>
<ellipse fill="#ffff77" stroke="black" stroke-width="0" cx="1030" cy="-53.66" rx="27" ry="18"/>
<text text-anchor="middle" x="1030" y="-49.96" font-family="Times-Roman" font-size="14.00">QQ</text>
</g>
<!-- u16 -->
<g id="node27" class="node">
<title>u16</title>
<ellipse fill="#7777ff" stroke="black" stroke-width="0" cx="629" cy="-380.66" rx="27" ry="18"/>
<text text-anchor="middle" x="629" y="-376.96" font-family="Times-Roman" font-size="14.00">QQ</text>
</g>
<!-- u15&#45;&gt;u1 -->
<g id="edge51" class="edge">
<title>u15&#45;&gt;u1</title>
<path fill="none" stroke="black" d="M707.32,-398.87C710.83,-417.56 719.45,-446.6 740,-460.66 773.6,-483.65 1065.83,-471.03 1106,-477.66 1109.69,-478.27 1113.47,-479.03 1117.26,-479.89"/>
<polygon fill="black" stroke="black" points="1116.67,-483.35 1127.21,-482.36 1118.35,-476.55 1116.67,-483.35"/>
</g>
<!-- u6&#45;&gt;u3 -->
<g id="edge52" class="edge">
<title>u6&#45;&gt;u3</title>
<path fill="none" stroke="black" d="M969.52,-365.51C981.28,-361.37 994.54,-357.25 1007,-354.66 1044.76,-346.8 1151.18,-366.3 1180,-340.66 1205.4,-318.06 1177.53,-294.82 1195,-265.66 1202.54,-253.08 1214.35,-242.23 1225.65,-233.81"/>
<polygon fill="black" stroke="black" points="1227.95,-236.47 1234.11,-227.86 1223.92,-230.75 1227.95,-236.47"/>
</g>
<!-- u8 -->
<g id="node31" class="node">
<title>u8</title>
<ellipse fill="#ffbbff" stroke="black" stroke-width="0" cx="1030" cy="-135.66" rx="42.49" ry="18"/>
<text text-anchor="middle" x="1030" y="-131.96" font-family="Times-Roman" font-size="14.00">Logger</text>
</g>
<!-- u7&#45;&gt;u8 -->
<g id="edge54" class="edge">
<title>u7&#45;&gt;u8</title>
<path fill="none" stroke="black" stroke-dasharray="5,2" d="M1030,-195.41C1030,-186.18 1030,-174.59 1030,-164.15"/>
<polygon fill="black" stroke="black" points="1033.5,-163.84 1030,-153.84 1026.5,-163.84 1033.5,-163.84"/>
</g>
<!-- u2 -->
<g id="node34" class="node">
<title>u2</title>
<ellipse fill="#ffffbb" stroke="black" stroke-width="0" cx="1128" cy="-291.66" rx="37.89" ry="18"/>
<text text-anchor="middle" x="1128" y="-287.96" font-family="Times-Roman" font-size="14.00">Errors</text>
</g>
<!-- u7&#45;&gt;u2 -->
<g id="edge53" class="edge">
<title>u7&#45;&gt;u2</title>
<path fill="none" stroke="black" d="M1049.85,-230.05C1064.58,-241.48 1084.85,-257.2 1101.05,-269.76"/>
<polygon fill="black" stroke="black" points="1099.06,-272.64 1109.1,-276.01 1103.35,-267.11 1099.06,-272.64"/>
</g>
<!-- u8&#45;&gt;u4 -->
<g id="edge55" class="edge">
<title>u8&#45;&gt;u4</title>
<path fill="none" stroke="black" d="M1071.74,-139.12C1139.49,-143.98 1269.17,-157.08 1302,-187.66 1322.76,-207 1328.33,-240.18 1329.47,-263.64"/>
<polygon fill="black" stroke="black" points="1325.97,-263.75 1329.71,-273.66 1332.97,-263.58 1325.97,-263.75"/>
</g>
<!-- u8&#45;&gt;u9 -->
<g id="edge56" class="edge">
<title>u8&#45;&gt;u9</title>
<path fill="none" stroke="black" stroke-dasharray="5,2" d="M1008.49,-151.25C968.13,-178.63 880.88,-237.82 834.11,-269.55"/>
<polygon fill="black" stroke="black" points="831.91,-266.82 825.6,-275.33 835.84,-272.61 831.91,-266.82"/>
</g>
<!-- u8&#45;&gt;u10 -->
<g id="edge57" class="edge">
<title>u8&#45;&gt;u10</title>
<path fill="none" stroke="black" d="M1030,-117.3C1030,-106.96 1030,-93.6 1030,-81.88"/>
<polygon fill="black" stroke="black" points="1033.5,-81.71 1030,-71.71 1026.5,-81.71 1033.5,-81.71"/>
</g>
<!-- u11&#45;&gt;u5 -->
<g id="edge58" class="edge">
<title>u11&#45;&gt;u5</title>
<path fill="none" stroke="black" d="M1060.4,-365.35C1065.63,-361.25 1071.74,-357.21 1078,-354.66 1124.47,-335.76 1144.94,-362.7 1190,-340.66 1201.46,-335.05 1211.82,-325.6 1219.95,-316.56"/>
<polygon fill="black" stroke="black" points="1222.7,-318.72 1226.49,-308.83 1217.36,-314.2 1222.7,-318.72"/>
</g>
<!-- u0&#45;&gt;u16 -->
<g id="edge4" class="edge">
<title>u0&#45;&gt;u16</title>
<path fill="none" stroke="black" d="M698.39,-558.78C685.1,-524.87 655.09,-448.27 639.25,-407.82"/>
<polygon fill="black" stroke="black" points="642.45,-406.39 635.54,-398.36 635.93,-408.95 642.45,-406.39"/>
</g>
<!-- u0&#45;&gt;u15 -->
<g id="edge3" class="edge">
<title>u0&#45;&gt;u15</title>
<path fill="none" stroke="black" d="M705,-558.44C705,-524.72 705,-449.72 705,-409.09"/>
<polygon fill="black" stroke="black" points="708.5,-408.84 705,-398.84 701.5,-408.84 708.5,-408.84"/>
</g>
<!-- u0&#45;&gt;u14 -->
<g id="edge2" class="edge">
<title>u0&#45;&gt;u14</title>
<path fill="none" stroke="black" d="M736.84,-564.68C776.8,-550.89 845.52,-527.18 890.35,-511.72"/>
<polygon fill="black" stroke="black" points="891.51,-515.02 899.82,-508.45 889.22,-508.4 891.51,-515.02"/>
</g>
<!-- u2&#45;&gt;u3 -->
<g id="edge5" class="edge">
<title>u2&#45;&gt;u3</title>
<path fill="none" stroke="black" d="M1150.77,-277.25C1171.58,-264.98 1202.56,-246.73 1225.7,-233.1"/>
<polygon fill="black" stroke="black" points="1227.62,-236.03 1234.46,-227.94 1224.07,-230 1227.62,-236.03"/>
</g>
<!-- u13&#45;&gt;u3 -->
<g id="edge6" class="edge">
<title>u13&#45;&gt;u3</title>
<path fill="none" stroke="black" d="M1412.98,-362.38C1410.65,-337.92 1403.02,-293.12 1378,-265.66 1357.81,-243.49 1326.42,-230.64 1300.67,-223.38"/>
<polygon fill="black" stroke="black" points="1301.32,-219.94 1290.76,-220.78 1299.54,-226.71 1301.32,-219.94"/>
</g>
<!-- u14&#45;&gt;u5 -->
<g id="edge7" class="edge">
<title>u14&#45;&gt;u5</title>
<path fill="none" stroke="black" d="M980.15,-490.19C1019.57,-485.37 1072.04,-476.2 1086,-460.66 1117.68,-425.38 1065.12,-388.82 1098,-354.66 1126.68,-324.86 1153.09,-359.32 1190,-340.66 1201.39,-334.9 1211.73,-325.43 1219.87,-316.41"/>
<polygon fill="black" stroke="black" points="1222.61,-318.59 1226.43,-308.71 1217.28,-314.05 1222.61,-318.59"/>
</g>
<!-- u14&#45;&gt;u12 -->
<g id="edge8" class="edge">
<title>u14&#45;&gt;u12</title>
<path fill="none" stroke="black" d="M895.43,-484.64C881.53,-479.41 866.66,-471.72 856,-460.66 842.29,-446.43 834.43,-425.42 830.06,-408.64"/>
<polygon fill="black" stroke="black" points="833.46,-407.78 827.77,-398.84 826.64,-409.37 833.46,-407.78"/>
</g>
<!-- u18&#45;&gt;u5 -->
<g id="edge10" class="edge">
<title>u18&#45;&gt;u5</title>
<path fill="none" stroke="black" d="M1468.63,-477.37C1480.29,-447.97 1498.11,-388.19 1467,-354.66 1438.65,-324.11 1317.28,-359.28 1280,-340.66 1269.49,-335.41 1260.48,-326.27 1253.53,-317.36"/>
<polygon fill="black" stroke="black" points="1256.2,-315.09 1247.51,-309.03 1250.53,-319.18 1256.2,-315.09"/>
</g>
<!-- u18&#45;&gt;u13 -->
<g id="edge9" class="edge">
<title>u18&#45;&gt;u13</title>
<path fill="none" stroke="black" d="M1453.86,-477.5C1446.19,-459.06 1433.9,-429.51 1425,-408.1"/>
<polygon fill="black" stroke="black" points="1428.12,-406.5 1421.05,-398.61 1421.66,-409.19 1428.12,-406.5"/>
</g>
<!-- u20 -->
<g id="node38" class="node">
<title>u20</title>
<ellipse fill="#bbffbb" stroke="black" stroke-width="0" cx="742" cy="-925.66" rx="32.49" ry="18"/>
<text text-anchor="middle" x="742" y="-921.96" font-family="Times-Roman" font-size="14.00">Main</text>
</g>
<!-- u20&#45;&gt;u21 -->
<g id="edge1" class="edge">
<title>u20&#45;&gt;u21</title>
<path fill="none" stroke="black" d="M742,-907.5C742,-889.33 742,-860.38 742,-839.05"/>
<polygon fill="black" stroke="black" points="745.5,-838.98 742,-828.98 738.5,-838.98 745.5,-838.98"/>
</g>
</g>
</svg>
